<svg xmlns="http://www.w3.org/2000/svg" width="500" height="500" style="width:100%;height:100%;transform:translate3d(0,0,0);content-visibility:visible" viewBox="0 0 500 500"><defs><clipPath id="g"><path d="M0 0h500v500H0z"/></clipPath><clipPath id="m"><path d="M0 0h500v500H0z"/></clipPath><clipPath id="p"><path d="M0 0h270v370H0z"/></clipPath><clipPath id="n"><path d="M0 0h270v370H0z"/></clipPath><clipPath id="h"><path d="M0 0h500v500H0z"/></clipPath><clipPath id="l"><path d="M0 0h270v370H0z"/></clipPath><clipPath id="j"><path d="M0 0h270v370H0z"/></clipPath><filter id="a" width="100%" height="100%" x="0%" y="0%" filterUnits="objectBoundingBox"><feComponentTransfer in="SourceGraphic"><feFuncA tableValues="1.0 0.0" type="table"/></feComponentTransfer></filter><filter id="c" width="100%" height="100%" x="0%" y="0%" filterUnits="objectBoundingBox"><feComponentTransfer in="SourceGraphic"><feFuncA tableValues="1.0 0.0" type="table"/></feComponentTransfer></filter><filter id="e" width="100%" height="100%" x="0%" y="0%" filterUnits="objectBoundingBox"><feComponentTransfer in="SourceGraphic"><feFuncA tableValues="1.0 0.0" type="table"/></feComponentTransfer></filter><mask id="o" mask-type="alpha"><g filter="url(#a)"><path fill="#fff" d="M0 0h500v500H0z" opacity="0"/><use xmlns:ns1="http://www.w3.org/1999/xlink" ns1:href="#b"/></g></mask><mask id="k" mask-type="alpha"><g filter="url(#c)"><path fill="#fff" d="M0 0h500v500H0z" opacity="0"/><use xmlns:ns2="http://www.w3.org/1999/xlink" ns2:href="#d"/></g></mask><mask id="i" mask-type="alpha"><g filter="url(#e)"><path fill="#fff" d="M0 0h500v500H0z" opacity="0"/><use xmlns:ns3="http://www.w3.org/1999/xlink" ns3:href="#f"/></g></mask><g id="d" style="display:none"><path fill-opacity="0"/><path/></g><g id="f" style="display:none"><path fill-opacity="0"/><path/></g><path id="b" fill="red" d="M26.69-186.57h.06v106.81h106.68v-.06L26.69-186.57z" style="display:block" transform="translate(249 249.76)"/></defs><g clip-path="url(#g)"><g clip-path="url(#h)" opacity="0" style="display:block"><g mask="url(#i)" style="display:block"><g fill="none" stroke-linecap="round" stroke-linejoin="round" stroke-width="12" clip-path="url(#j)" transform="translate(115 65)"><path stroke="#121330" d="M215.06 265.06h-40.03m-26.687 0H54.941m160.119 53.373H54.94" style="display:block"/><path stroke="#07A889" d="M120.173 210.609s-6.094 2.793-17.215 1.589c-11.15-1.207-20.245-11.62-20.245-22.835v-8.865c0-12.951 10.6-23.264 23.548-22.997 8.367.173 12.912 1.735 12.912 1.735m68.114-.925-20.918 53.374-22.19-53.374" style="display:block"/></g></g><g fill="none" stroke="#121330" stroke-linecap="round" stroke-linejoin="round" stroke-width="12" mask="url(#k)" style="display:block"><path d="M276.689 63.231v106.746h106.747m0 0L276.689 63.231"/><path d="M276.69 63.19H116.57v373.14h266.86V169.94"/></g><g fill="none" clip-path="url(#l)" style="display:none"><g style="display:none"><path/><path/><path/></g><g style="display:none"><path/><path/></g></g><path fill="none" style="display:none"/><path fill="none" style="display:none"/><path fill="none" style="display:none"/><g fill="none" style="display:none"><path/><path/></g><g fill="none" style="display:none"><path/><path/></g></g><g clip-path="url(#m)" style="display:block"><g fill="none" clip-path="url(#n)" style="display:none"><g style="display:none"><path/><path/><path/></g><g style="display:none"><path/><path/></g></g><g mask="url(#o)" style="display:block"><g fill="none" stroke-linecap="round" stroke-linejoin="round" stroke-width="12" clip-path="url(#p)" transform="translate(115 65)"><path stroke="#121330" d="M215.06 265.06h-40.03m-26.687 0H54.941m160.119 53.373H54.94" style="display:block"/><path stroke="#07A889" d="M120.173 210.609s-6.094 2.793-17.215 1.589c-11.15-1.207-20.245-11.62-20.245-22.835v-8.865c0-12.951 10.6-23.264 23.548-22.997 8.367.173 12.912 1.735 12.912 1.735m68.114-.925-20.918 53.374-22.19-53.374" style="display:block"/></g></g><g fill="none" stroke="#121330" stroke-linecap="round" stroke-linejoin="round" stroke-width="12" style="display:block"><path d="M276.69 63.19H116.57v373.14h266.86V169.94L276.69 63.19z"/><path d="M276.687 63.194V169.94h106.746"/></g><path fill="none" stroke="#121330" stroke-linecap="round" stroke-linejoin="round" stroke-width="12" d="M-53.373-53.373s3.306 2.315 53 52.746c50.313 51.06 53.746 54 53.746 54" style="display:block" transform="translate(330.06 116.567)"/></g><path style="display:none"/></g></svg>