<svg width="28" height="28" fill="none" xmlns="http://www.w3.org/2000/svg">
  <path d="M9.103 6.686c.687 0 1.306.06 1.873.181.563.12 1.044.319 1.45.593.4.274.713.638.938 1.095.218.452.326 1.016.326 1.684 0 .723-.163 1.327-.49 1.81-.33.482-.817.878-1.466 1.183.883.256 1.538.703 1.972 1.337.436.64.65 1.407.65 2.306 0 .729-.14 1.355-.418 1.882a3.63 3.63 0 0 1-1.136 1.3 5.035 5.035 0 0 1-1.633.746 7.331 7.331 0 0 1-1.877.24H2.333V6.686h6.77Zm-.41 5.8c.56 0 1.025-.132 1.391-.402.364-.266.54-.704.54-1.305 0-.334-.059-.61-.176-.825a1.299 1.299 0 0 0-.486-.5 1.963 1.963 0 0 0-.697-.25 4.21 4.21 0 0 0-.813-.071H5.495v3.354h3.199ZM8.87 18.6c.311 0 .608-.027.887-.09.28-.06.53-.158.743-.304.212-.14.387-.33.513-.573.127-.24.189-.554.189-.931 0-.74-.209-1.266-.622-1.584-.414-.315-.97-.472-1.65-.472H5.496V18.6H8.87Zm9.992-.048c.429.418 1.046.628 1.848.628.575 0 1.072-.146 1.491-.435.413-.29.665-.601.762-.922h2.514c-.403 1.25-1.016 2.144-1.854 2.682-.827.54-1.834.809-3.01.809-.819 0-1.556-.132-2.216-.393a4.704 4.704 0 0 1-1.679-1.118 5.097 5.097 0 0 1-1.056-1.733 6.34 6.34 0 0 1-.373-2.215c0-.777.13-1.504.384-2.175a5.105 5.105 0 0 1 1.09-1.742 5.177 5.177 0 0 1 1.684-1.16 5.408 5.408 0 0 1 2.168-.422c.88 0 1.648.17 2.309.514.64.327 1.195.8 1.621 1.379a5.63 5.63 0 0 1 .914 1.973c.188.737.253 1.507.2 2.313h-7.504c.002.821.278 1.6.707 2.017Zm3.281-5.46c-.34-.377-.913-.58-1.616-.58-.456 0-.833.076-1.136.233a2.3 2.3 0 0 0-.723.572 2.068 2.068 0 0 0-.383.733 3.29 3.29 0 0 0-.13.685h4.646c-.068-.728-.317-1.266-.658-1.644ZM17.572 7.65h5.82v1.417h-5.82V7.65Z" fill="#9D9D9D"/>
</svg>
