<svg width="28" height="28" fill="none" xmlns="http://www.w3.org/2000/svg">
  <path d="M24.103 8.143a11.587 11.587 0 0 0-4.248-4.246C18.067 2.855 16.115 2.333 14 2.333c-2.116 0-4.067.522-5.857 1.564a11.584 11.584 0 0 0-4.247 4.246C2.855 9.932 2.333 11.885 2.333 14s.52 4.068 1.563 5.857a11.579 11.579 0 0 0 4.248 4.246c1.789 1.042 3.74 1.564 5.856 1.564 2.115 0 4.067-.522 5.856-1.564a11.588 11.588 0 0 0 4.248-4.246c1.042-1.789 1.562-3.742 1.562-5.857s-.52-4.068-1.563-5.857ZM14 4.27c2.333 0 4.4.747 6.206 2.239-1.073 1.37-2.667 2.496-4.783 3.383-1.169-2.115-2.436-3.881-3.805-5.297A9 9 0 0 1 14 4.27ZM6.428 7.933a9.469 9.469 0 0 1 3.163-2.59c1.414 1.401 2.712 3.15 3.897 5.25-2.334.7-4.8 1.05-7.398 1.05-.669 0-1.174-.015-1.517-.046a9.973 9.973 0 0 1 1.855-3.664ZM4.27 14c0-.063.003-.14.011-.233.009-.094.012-.17.012-.234.296.017.748.024 1.355.024 3.11 0 6.003-.429 8.678-1.284.218.435.445.925.677 1.47-1.54.342-3.12 1.174-4.738 2.497-1.618 1.323-2.799 2.715-3.545 4.177-1.634-1.852-2.45-3.99-2.45-6.417ZM14 23.73c-2.21 0-4.193-.685-5.951-2.052.7-1.385 1.778-2.71 3.232-3.968 1.454-1.26 2.897-2.045 4.329-2.357a34.348 34.348 0 0 1 1.82 7.724 9.527 9.527 0 0 1-3.43.653Zm8.26-4.62a9.744 9.744 0 0 1-3.01 3.058 33.58 33.58 0 0 0-1.61-7.095 41.787 41.787 0 0 1 2.918-.116c.932 0 1.966.04 3.102.116a9.447 9.447 0 0 1-1.4 4.037Zm-1.447-5.833c-1.353 0-2.605.054-3.757.163a31.6 31.6 0 0 0-.793-1.89c2.41-1.057 4.12-2.34 5.132-3.85 1.4 1.65 2.163 3.531 2.287 5.647a58.271 58.271 0 0 0-2.869-.07Z" fill="#9D9D9D"/>
</svg>
