<svg width="28" height="28" fill="none" xmlns="http://www.w3.org/2000/svg">
  <path d="M14 8.606a5.395 5.395 0 1 0 0 10.79 5.395 5.395 0 0 0 0-10.79Zm0 8.899a3.504 3.504 0 1 1-.001-7.01 3.504 3.504 0 0 1 0 7.01ZM19.607 9.666a1.258 1.258 0 1 0 0-2.515 1.258 1.258 0 0 0 0 2.515Z" fill="#9D9D9D"/>
  <path d="M23.955 7.13a5.372 5.372 0 0 0-3.072-3.071 7.708 7.708 0 0 0-2.55-.49c-1.124-.05-1.48-.063-4.329-.063-2.849 0-3.214 0-4.328.063a7.646 7.646 0 0 0-2.548.49 5.367 5.367 0 0 0-3.072 3.07 7.682 7.682 0 0 0-.489 2.55c-.05 1.123-.065 1.479-.065 4.33 0 2.848 0 3.211.065 4.328.018.872.182 1.733.49 2.551a5.378 5.378 0 0 0 3.072 3.07 7.682 7.682 0 0 0 2.55.526c1.123.049 1.479.064 4.328.064s3.214 0 4.328-.064a7.717 7.717 0 0 0 2.55-.49 5.382 5.382 0 0 0 3.072-3.071 7.68 7.68 0 0 0 .489-2.55c.05-1.123.065-1.479.065-4.329 0-2.85 0-3.212-.065-4.328a7.679 7.679 0 0 0-.491-2.586Zm-1.421 11.12a5.885 5.885 0 0 1-.363 1.97 3.485 3.485 0 0 1-1.997 1.996 5.817 5.817 0 0 1-1.949.362c-1.108.052-1.42.065-4.263.065-2.844 0-3.134 0-4.264-.065a5.787 5.787 0 0 1-1.947-.362 3.484 3.484 0 0 1-2.006-1.997 5.926 5.926 0 0 1-.362-1.947c-.05-1.108-.062-1.42-.062-4.263s0-3.133.062-4.264c.007-.672.13-1.337.362-1.968A3.484 3.484 0 0 1 7.751 5.78a5.845 5.845 0 0 1 1.947-.363c1.11-.05 1.421-.064 4.264-.064s3.135 0 4.263.064c.666.008 1.325.13 1.949.363a3.488 3.488 0 0 1 1.997 1.997c.23.624.352 1.282.363 1.947.05 1.11.063 1.421.063 4.264 0 2.842 0 3.148-.05 4.263h-.013Z" fill="#9D9D9D"/>
</svg>
