<svg width="45" height="45" fill="none" xmlns="http://www.w3.org/2000/svg">
  <rect x="45" y="45" width="45" height="45" rx="22.5" transform="rotate(180 45 45)" fill="url(#a)"/>
  <path d="M27.43 25.08c0 .506-.096.982-.29 1.426a3.739 3.739 0 0 1-1.957 1.957c-.444.194-.92.29-1.427.29h-5.622v-2.452h5.622a1.215 1.215 0 0 0 1.128-.743 1.278 1.278 0 0 0 0-.966 1.3 1.3 0 0 0-.256-.393 1.302 1.302 0 0 0-.393-.256 1.216 1.216 0 0 0-.479-.094h-2.452c-.507 0-.983-.097-1.427-.29a3.53 3.53 0 0 1-1.17-.787 3.53 3.53 0 0 1-.787-1.17 3.532 3.532 0 0 1-.29-1.428c0-.507.096-.982.29-1.427a3.65 3.65 0 0 1 1.957-1.956c.444-.194.92-.291 1.427-.291h5.443v2.452h-5.443a1.215 1.215 0 0 0-1.128.744 1.215 1.215 0 0 0-.094.478c0 .171.031.33.094.479.062.148.15.276.265.384.108.114.236.203.384.265.148.063.308.094.479.094h2.452c.507 0 .983.097 1.427.29.444.195.835.456 1.17.787.331.336.593.726.787 1.17.194.45.29.93.29 1.436Z" fill="#fff"/>
  <defs>
    <radialGradient id="a" cx="0" cy="0" r="1" gradientUnits="userSpaceOnUse" gradientTransform="matrix(0 11 -11 0 67.5 79)">
      <stop stop-color="#0252CD"/>
      <stop offset="1" stop-color="#0252CD" stop-opacity=".33"/>
    </radialGradient>
  </defs>
</svg>
