<?xml version="1.0" encoding="UTF-8" standalone="no"?>
<!DOCTYPE svg PUBLIC "-//W3C//DTD SVG 1.1//EN" "http://www.w3.org/Graphics/SVG/1.1/DTD/svg11.dtd">
<svg xmlns="http://www.w3.org/2000/svg" version="1.1" viewBox="0.00 0.00 1024.00 1024.00">
<g stroke-width="2.00" fill="none" stroke-linecap="butt">
<path stroke="#9d7090" vector-effect="non-scaling-stroke" d="
  M 506.82 363.51
  Q 497.58 364.15 488.00 363.46"
/>
<path stroke="#c46d8a" vector-effect="non-scaling-stroke" d="
  M 633.79 443.25
  C 634.42 444.81 638.48 454.99 639.96 454.75"
/>
<path stroke="#caa481" vector-effect="non-scaling-stroke" d="
  M 649.12 485.00
  L 648.96 488.75"
/>
<path stroke="#b9bb8a" vector-effect="non-scaling-stroke" d="
  M 648.96 488.75
  L 648.04 489.25"
/>
<path stroke="#cb8084" vector-effect="non-scaling-stroke" d="
  M 648.04 489.25
  Q 645.99 476.77 641.50 464.96"
/>
<path stroke="#c46d8a" vector-effect="non-scaling-stroke" d="
  M 641.50 464.96
  C 636.54 450.31 629.78 437.79 621.00 425.43
  C 604.87 402.72 580.78 384.95 555.04 375.50"
/>
<path stroke="#9d7090" vector-effect="non-scaling-stroke" d="
  M 555.04 375.50
  Q 540.94 369.41 525.75 367.21"
/>
<path stroke="#7682a4" vector-effect="non-scaling-stroke" d="
  M 525.75 367.21
  C 495.20 362.29 463.76 365.49 435.75 379.04"
/>
<path stroke="#6096ad" vector-effect="non-scaling-stroke" d="
  M 435.75 379.04
  C 396.21 398.44 367.53 432.58 357.00 475.21"
/>
<path stroke="#6ba4a6" vector-effect="non-scaling-stroke" d="
  M 357.00 475.21
  Q 350.94 499.15 353.04 523.75"
/>
<path stroke="#90b59d" vector-effect="non-scaling-stroke" d="
  M 353.04 523.75
  Q 354.77 545.30 362.50 565.46"
/>
<path stroke="#b9bb8a" vector-effect="non-scaling-stroke" d="
  M 362.50 565.46
  L 361.29 566.00"
/>
<path stroke="#52b1c8" vector-effect="non-scaling-stroke" d="
  M 360.25 564.46
  L 355.71 549.25"
/>
<path stroke="#52b1c8" vector-effect="non-scaling-stroke" d="
  M 351.46 523.25
  L 351.11 505.68"
/>
<path stroke="#52b1c8" vector-effect="non-scaling-stroke" d="
  M 356.75 470.04
  C 359.42 466.83 361.41 458.20 362.46 454.00"
/>
<path stroke="#52b1c8" vector-effect="non-scaling-stroke" d="
  M 397.75 403.29
  C 394.11 407.67 389.93 411.46 386.32 415.84
  A 0.73 0.72 -30.7 0 1 385.05 415.52
  Q 384.72 413.88 383.25 413.54"
/>
<path stroke="#7682a4" vector-effect="non-scaling-stroke" d="
  M 457.50 368.79
  Q 449.61 372.29 441.25 374.46"
/>
<path stroke="#c46d8a" vector-effect="non-scaling-stroke" d="
  M 583.46 387.50
  Q 578.02 385.69 573.13 381.91"
/>
<path stroke="#c46d8a" vector-effect="non-scaling-stroke" d="
  M 534.75 366.96
  Q 528.00 366.60 521.50 364.71"
/>
<path stroke="#188f99" vector-effect="non-scaling-stroke" d="
  M 426.54 407.75
  C 389.34 435.13 369.66 478.62 373.96 524.75"
/>
<path stroke="#318177" vector-effect="non-scaling-stroke" d="
  M 373.96 524.75
  L 372.84 523.59
  Q 372.63 523.37 372.35 523.47
  L 371.99 523.59
  Q 371.53 523.74 371.52 523.25
  C 371.49 521.97 370.81 521.23 370.73 520.10
  Q 370.57 517.95 371.22 515.92
  Q 371.35 515.49 371.26 515.05
  L 370.00 509.02
  Q 369.89 508.48 369.75 509.02
  L 369.45 510.22
  Q 369.35 510.65 369.34 510.21
  Q 369.30 508.24 367.71 507.35
  Q 367.29 507.12 367.17 506.64
  Q 365.28 499.17 366.89 491.66
  Q 366.93 491.51 366.87 491.36
  Q 366.82 491.21 366.74 491.07
  Q 366.60 490.80 366.54 491.10
  Q 366.49 491.31 366.40 491.55
  Q 366.24 491.97 366.22 491.52
  Q 365.95 484.67 368.84 478.46
  Q 369.10 477.90 368.79 477.37
  Q 368.20 476.34 369.09 475.44
  Q 369.58 474.95 369.09 474.46
  L 368.64 474.02
  Q 368.22 473.60 368.41 473.04
  L 369.82 468.85
  Q 370.01 468.27 369.58 467.85
  Q 368.10 466.41 369.29 464.69
  Q 369.85 463.88 368.89 463.68
  C 365.74 463.03 366.08 467.62 365.70 469.55
  Q 365.61 470.00 365.32 470.36
  L 362.18 474.26
  Q 361.92 474.58 361.72 474.22
  C 360.60 472.16 358.25 474.58 357.00 475.21"
/>
<path stroke="#ea8232" vector-effect="non-scaling-stroke" d="
  M 628.29 499.25
  Q 632.06 536.45 615.50 569.71"
/>
<path stroke="#e9a62f" vector-effect="non-scaling-stroke" d="
  M 615.50 569.71
  C 586.01 626.99 523.21 652.55 461.52 634.00
  Q 461.25 633.92 461.37 634.18
  Q 461.67 634.82 461.35 635.55
  Q 461.29 635.70 461.15 635.78
  L 460.71 636.04
  Q 460.29 636.29 460.77 636.38
  Q 461.53 636.53 462.08 637.04
  Q 462.79 637.68 461.88 637.40
  Q 460.81 637.06 459.76 636.73
  Q 440.23 630.56 459.56 636.94
  Q 459.66 636.97 459.76 636.99
  Q 461.00 637.27 459.75 637.25
  Q 459.62 637.25 459.48 637.24
  Q 459.22 637.23 459.42 637.41
  L 459.65 637.61
  Q 460.11 638.00 459.53 637.84
  C 455.82 636.80 453.26 635.95 449.33 635.73
  C 446.66 635.58 444.66 634.31 442.22 633.29
  Q 441.80 633.12 442.01 633.52
  L 442.23 633.92
  Q 442.60 634.62 441.83 634.43
  L 437.67 633.36
  Q 437.39 633.29 437.53 633.54
  L 437.69 633.85
  Q 437.85 634.14 437.52 634.14
  Q 432.75 634.16 428.64 631.60
  Q 428.31 631.39 428.49 631.73
  L 428.71 632.13
  Q 428.89 632.48 428.51 632.38
  L 420.08 630.28
  Q 419.96 630.25 419.98 630.37
  L 420.33 633.55
  A 0.43 0.42 76.8 0 0 420.90 633.91
  Q 423.54 632.91 425.09 635.33
  Q 425.35 635.75 424.86 635.75
  Q 424.65 635.75 424.42 635.75
  Q 423.92 635.74 423.99 636.23
  Q 424.11 637.10 423.41 637.57
  Q 423.04 637.82 423.32 638.18
  C 424.71 639.95 426.58 640.69 428.18 641.71
  C 435.33 646.31 441.90 648.80 449.09 651.90
  Q 454.82 654.37 459.84 655.60
  C 472.37 658.66 485.45 661.11 498.51 661.27
  C 519.63 661.54 539.31 658.35 558.63 649.61
  Q 569.06 644.90 576.04 641.02
  C 609.20 622.61 634.51 588.71 644.71 552.50"
/>
<path stroke="#ea8232" vector-effect="non-scaling-stroke" d="
  M 644.71 552.50
  C 649.00 537.82 650.17 523.65 650.21 508.40
  C 650.23 502.04 649.04 495.59 648.04 489.25"
/>
<path stroke="#e9a62f" vector-effect="non-scaling-stroke" d="
  M 648.96 488.75
  Q 649.62 495.31 651.48 501.50"
/>
<path stroke="#e9a62f" vector-effect="non-scaling-stroke" d="
  M 651.56 514.79
  Q 650.22 521.62 650.79 529.25"
/>
<path stroke="#e9a62f" vector-effect="non-scaling-stroke" d="
  M 643.96 560.25
  C 640.91 564.75 639.16 570.76 637.50 575.96"
/>
<path stroke="#e9a62f" vector-effect="non-scaling-stroke" d="
  M 621.50 602.54
  Q 620.89 602.89 620.45 603.43
  Q 614.83 610.31 608.65 616.70
  C 608.14 617.22 608.04 617.82 607.75 618.46"
/>
<path stroke="#e9a62f" vector-effect="non-scaling-stroke" d="
  M 586.21 636.75
  Q 579.83 639.33 574.50 643.71"
/>
<path stroke="#e26f38" vector-effect="non-scaling-stroke" d="
  M 546.50 656.54
  L 526.28 661.13"
/>
<path stroke="#e26f38" vector-effect="non-scaling-stroke" d="
  M 512.50 662.79
  L 496.75 663.29"
/>
<path stroke="#ebae35" vector-effect="non-scaling-stroke" d="
  M 460.79 657.75
  Q 453.01 655.09 445.50 651.75
  Q 444.91 651.49 443.68 651.59"
/>
<path stroke="#ebae35" vector-effect="non-scaling-stroke" d="
  M 413.00 634.46
  Q 407.01 628.97 401.06 623.44
  Q 400.10 622.54 398.50 622.96"
/>
<path stroke="#b48b3f" vector-effect="non-scaling-stroke" d="
  M 390.59 614.07
  Q 386.37 608.06 381.54 603.00"
/>
<path stroke="#afb74b" vector-effect="non-scaling-stroke" d="
  M 362.50 565.46
  C 365.66 572.74 368.76 580.27 372.78 586.83
  Q 378.08 595.49 384.50 603.75
  A 1.47 1.47 0.0 0 0 385.69 604.33
  L 388.12 604.30
  Q 388.63 604.29 388.76 604.78
  Q 389.44 607.26 391.57 608.10
  C 393.51 608.85 395.17 609.71 396.95 610.69
  Q 397.33 610.90 397.49 610.50
  Q 397.66 610.05 398.16 610.33
  Q 398.88 610.74 398.42 610.06
  Q 398.14 609.65 397.76 609.52
  Q 396.78 609.18 397.75 609.07
  Q 398.74 608.95 399.30 609.59
  Q 399.66 610.00 400.20 610.00
  Q 400.34 610.00 400.50 610.00
  Q 401.36 610.00 401.01 609.22
  Q 400.49 608.10 399.36 607.99
  Q 398.85 607.94 398.86 607.43
  Q 398.88 606.66 398.18 606.23
  Q 397.34 605.73 398.28 605.45
  Q 398.84 605.29 399.49 605.82
  Q 402.15 608.00 399.80 605.25
  Q 399.42 604.80 398.93 604.36
  Q 398.30 603.80 399.14 603.79
  L 399.58 603.79
  Q 399.83 603.79 400.07 603.69
  Q 401.12 603.27 400.54 602.12
  Q 400.26 601.58 400.85 601.75
  Q 403.61 602.56 405.93 604.32
  Q 406.46 604.72 407.00 604.34
  Q 408.01 603.63 408.61 604.49
  Q 408.94 604.96 409.51 604.98
  L 412.45 605.09
  Q 412.93 605.10 412.60 604.76
  L 406.00 597.79"
/>
<path stroke="#afb74b" vector-effect="non-scaling-stroke" d="
  M 401.25 588.29
  Q 403.09 586.71 405.46 587.08
  Q 405.89 587.15 406.22 586.87
  Q 406.87 586.31 407.71 586.50
  Q 408.28 586.63 408.56 586.13
  Q 409.34 584.78 410.85 584.99
  Q 411.17 585.03 411.40 584.80
  L 411.67 584.54
  Q 412.13 584.08 412.68 584.43
  Q 414.06 585.29 415.69 584.94
  Q 416.00 584.87 416.00 584.55
  Q 416.00 584.39 416.00 584.24
  Q 416.00 583.90 416.34 583.94
  Q 421.23 584.53 424.75 581.21"
/>
<path stroke="#ebae35" vector-effect="non-scaling-stroke" d="
  M 484.50 614.57
  Q 482.03 615.21 481.56 617.57
  Q 481.44 618.17 482.05 618.27
  Q 484.70 618.71 485.42 621.20
  Q 485.56 621.70 486.08 621.74
  Q 486.62 621.78 487.07 622.32
  Q 487.35 622.65 487.24 623.07
  L 486.99 624.09
  Q 486.87 624.54 486.41 624.52
  L 485.44 624.47
  Q 485.12 624.46 484.98 624.75
  L 484.17 626.53
  Q 483.90 627.12 483.25 627.05
  Q 481.06 626.80 479.67 628.63
  Q 479.42 628.96 479.03 629.10
  Q 473.90 630.84 470.20 631.16
  Q 467.51 631.39 467.29 633.41
  Q 467.23 633.94 467.75 634.07
  C 490.89 639.98 516.10 640.15 538.86 632.76
  C 584.17 618.04 618.71 578.93 625.46 531.25"
/>
<path stroke="#ea8232" vector-effect="non-scaling-stroke" d="
  M 625.46 531.25
  Q 626.32 527.32 626.57 523.32
  C 627.84 502.69 625.06 481.22 616.54 462.25"
/>
<path stroke="#e26f38" vector-effect="non-scaling-stroke" d="
  M 616.54 462.25
  Q 595.64 414.00 546.50 395.21"
/>
<path stroke="#bd8153" vector-effect="non-scaling-stroke" d="
  M 546.50 395.21
  Q 530.80 389.03 514.00 387.46"
/>
<path stroke="#c46d8a" vector-effect="non-scaling-stroke" d="
  M 616.79 417.21
  L 604.25 404.29"
/>
<path stroke="#fb6b29" vector-effect="non-scaling-stroke" d="
  M 644.71 552.50
  Q 643.91 552.61 643.19 552.32
  Q 642.83 552.17 643.01 552.51
  L 643.13 552.74
  Q 643.37 553.19 642.89 553.38
  C 639.72 554.60 636.91 555.36 634.32 557.73
  Q 630.81 560.94 627.35 564.20
  C 624.94 566.47 621.31 570.63 617.76 573.40
  Q 617.59 573.53 617.53 573.33
  Q 617.48 573.20 617.43 573.06
  Q 616.92 571.65 616.82 573.39
  Q 616.72 575.26 615.18 576.06
  Q 614.56 576.37 614.66 575.69
  L 615.50 569.71"
/>
<path stroke="#f53432" vector-effect="non-scaling-stroke" d="
  M 641.50 464.96
  Q 640.95 467.10 641.59 469.14
  Q 641.72 469.56 641.37 469.82
  C 638.96 471.60 638.42 473.69 636.99 476.20
  Q 636.76 476.60 636.31 476.70
  Q 635.20 476.95 634.99 478.15
  Q 634.92 478.56 635.06 478.95
  C 635.63 480.59 634.77 482.25 634.65 483.45
  Q 633.77 492.37 632.10 501.16
  Q 631.92 502.07 631.43 502.85
  Q 631.24 503.14 631.25 502.79
  Q 631.25 502.60 631.26 502.40
  Q 631.31 501.79 630.78 502.10
  L 630.49 502.27
  Q 630.33 502.36 630.27 502.20
  Q 629.62 500.51 628.29 499.25"
/>
<path stroke="#e26f38" vector-effect="non-scaling-stroke" d="
  M 628.29 499.25
  C 622.02 447.52 586.31 404.31 536.00 389.96"
/>
<path stroke="#793a58" vector-effect="non-scaling-stroke" d="
  M 525.75 367.21
  C 525.07 367.89 520.62 371.55 521.20 372.20
  Q 521.54 372.58 521.07 372.79
  Q 519.07 373.67 518.00 375.59
  Q 517.74 376.04 517.23 376.02
  Q 514.24 375.85 511.89 378.04
  A 0.36 0.36 0.0 0 0 512.20 378.65
  Q 512.71 378.55 513.28 378.92
  Q 513.51 379.06 513.50 379.32
  Q 513.50 379.46 513.50 379.59
  Q 513.48 379.93 513.15 379.96
  Q 508.66 380.39 507.75 384.96"
/>
<path stroke="#2e7b90" vector-effect="non-scaling-stroke" d="
  M 507.75 384.96
  C 477.49 384.35 451.48 390.32 426.54 407.75"
/>
<path stroke="#3c5f75" vector-effect="non-scaling-stroke" d="
  M 426.54 407.75
  Q 425.28 407.55 424.75 406.51
  Q 424.51 406.05 424.89 405.70
  L 428.32 402.43
  Q 428.63 402.13 428.76 401.72
  L 429.55 399.22
  Q 429.68 398.81 430.00 398.51
  Q 432.34 396.35 434.55 394.05
  Q 436.04 392.49 434.24 393.68
  L 431.92 395.21
  Q 431.41 395.55 431.73 395.02
  Q 431.84 394.84 431.93 394.69
  Q 432.20 394.21 431.72 394.47
  L 430.27 395.27
  Q 430.12 395.35 430.06 395.19
  Q 430.02 395.05 429.97 394.92
  Q 429.78 394.37 430.32 394.16
  Q 431.67 393.62 431.56 392.06
  Q 431.52 391.56 431.12 391.87
  Q 429.42 393.17 427.37 392.97
  Q 425.46 392.78 427.24 392.05
  Q 428.53 391.52 428.69 389.86
  Q 428.74 389.39 428.40 389.72
  L 427.96 390.17
  Q 427.40 390.73 427.78 390.04
  C 429.91 386.18 430.76 383.72 434.97 381.72
  Q 435.44 381.50 435.50 380.98
  L 435.75 379.04"
/>
<path stroke="#61a067" vector-effect="non-scaling-stroke" d="
  M 380.71 555.00
  Q 378.97 555.33 378.00 553.94
  Q 377.72 553.54 377.29 553.30
  C 373.12 550.96 371.72 536.39 371.13 533.71
  Q 371.02 533.24 370.57 533.06
  Q 370.04 532.85 369.63 532.29
  Q 369.00 531.45 369.00 532.50
  L 369.00 532.99
  Q 369.00 533.62 368.55 533.19
  C 366.36 531.06 366.84 528.16 363.69 525.86
  Q 363.57 525.78 363.53 525.91
  L 363.44 526.19
  Q 363.38 526.38 363.31 526.19
  L 363.17 525.77
  Q 363.05 525.42 362.88 525.74
  L 361.70 528.06
  Q 361.51 528.41 361.13 528.29
  Q 360.89 528.21 360.75 528.36
  Q 360.29 528.84 359.93 528.29
  C 358.59 526.22 359.61 523.07 357.39 522.22
  Q 356.96 522.05 356.52 522.22
  Q 355.83 522.49 356.22 522.94
  Q 356.66 523.44 356.10 523.81
  Q 354.76 524.70 353.75 523.58
  Q 353.58 523.39 353.37 523.53
  L 353.04 523.75"
/>
<path stroke="#c7253e" vector-effect="non-scaling-stroke" d="
  M 555.04 375.50
  Q 550.19 378.23 549.30 383.51
  Q 549.22 384.00 548.72 384.00
  L 547.50 384.00
  Q 547.00 384.00 547.00 384.50
  L 547.00 385.25
  Q 547.00 385.91 546.41 385.62
  Q 545.00 384.90 543.77 385.62
  Q 543.32 385.89 542.83 385.74
  Q 541.28 385.26 540.11 386.17
  Q 539.89 386.34 540.03 386.58
  L 540.20 386.87
  Q 540.39 387.19 540.03 387.11
  Q 536.88 386.40 536.00 389.96"
/>
<path stroke="#bc733e" vector-effect="non-scaling-stroke" d="
  M 536.00 389.96
  Q 525.92 387.00 515.50 385.71"
/>
<path stroke="#55697c" vector-effect="non-scaling-stroke" d="
  M 515.50 385.71
  L 507.75 384.96"
/>
<path stroke="#71b476" vector-effect="non-scaling-stroke" d="
  M 515.50 385.71
  L 514.00 387.46"
/>
<path stroke="#577890" vector-effect="non-scaling-stroke" d="
  M 514.00 387.46
  Q 498.73 385.76 483.50 387.79"
/>
<path stroke="#34859e" vector-effect="non-scaling-stroke" d="
  M 483.50 387.79
  Q 459.88 390.57 439.25 402.29"
/>
<path stroke="#1d9ea2" vector-effect="non-scaling-stroke" d="
  M 439.25 402.29
  C 395.83 425.75 372.58 472.75 375.73 521.56
  Q 376.24 529.45 379.21 541.50"
/>
<path stroke="#48ae89" vector-effect="non-scaling-stroke" d="
  M 379.21 541.50
  Q 385.50 567.15 401.25 588.29"
/>
<path stroke="#71b476" vector-effect="non-scaling-stroke" d="
  M 401.25 588.29
  L 407.33 596.36
  Q 407.55 596.66 407.20 596.78
  Q 406.41 597.04 406.00 597.79"
/>
<path stroke="#48ae89" vector-effect="non-scaling-stroke" d="
  M 406.00 597.79
  Q 389.40 578.75 380.71 555.00"
/>
<path stroke="#239d91" vector-effect="non-scaling-stroke" d="
  M 380.71 555.00
  Q 375.62 540.26 373.96 524.75"
/>
<path stroke="#c83352" vector-effect="non-scaling-stroke" d="
  M 546.50 395.21
  Q 543.11 396.79 540.47 400.23
  Q 536.92 404.87 531.23 410.24
  Q 530.05 411.35 530.25 413.71"
/>
<path stroke="#80537b" vector-effect="non-scaling-stroke" d="
  M 480.29 411.50
  L 483.50 387.79"
/>
<path stroke="#fd732f" vector-effect="non-scaling-stroke" d="
  M 625.46 531.25
  Q 624.19 532.01 624.16 533.04
  Q 624.15 533.52 624.28 533.97
  Q 624.67 535.27 624.28 536.32
  Q 624.07 536.89 623.54 536.61
  Q 623.09 536.39 623.01 535.99
  Q 622.89 535.40 622.35 535.11
  Q 617.25 532.36 611.38 532.81
  Q 610.75 532.86 610.75 532.22
  L 610.75 531.82
  Q 610.75 531.37 610.31 531.45
  L 604.95 532.48
  Q 604.55 532.55 604.76 532.20
  L 604.93 531.93
  Q 605.19 531.48 604.44 531.69
  Q 604.20 531.75 604.12 531.35
  Q 604.09 531.16 604.13 530.96
  Q 604.26 530.30 604.03 529.61
  Q 603.80 528.92 603.44 529.54
  Q 602.79 530.66 602.95 531.97
  Q 602.99 532.22 602.75 532.12
  Q 602.59 532.06 602.50 531.96"
/>
<path stroke="#f53432" vector-effect="non-scaling-stroke" d="
  M 616.54 462.25
  Q 616.28 463.91 616.75 465.62
  Q 616.91 466.22 616.31 466.35
  Q 612.13 467.29 608.60 469.70
  Q 608.14 470.02 607.75 469.61
  Q 607.12 468.95 606.05 469.31
  Q 605.60 469.46 605.26 469.78
  Q 602.73 472.16 599.29 472.63
  Q 598.77 472.70 598.88 473.21
  Q 598.93 473.47 598.67 473.58
  Q 598.05 473.85 598.27 474.48
  L 599.80 478.83
  Q 599.95 479.27 599.78 479.70
  L 599.25 481.04"
/>
<path stroke="#46798d" vector-effect="non-scaling-stroke" d="
  M 441.29 428.50
  C 441.81 425.06 437.57 416.74 436.07 413.27
  Q 435.86 412.80 435.98 412.30
  Q 436.46 410.15 436.75 406.49
  Q 436.91 404.42 438.83 403.41
  Q 439.24 403.20 439.25 402.73
  L 439.25 402.29"
/>
<path stroke="#5ba178" vector-effect="non-scaling-stroke" d="
  M 403.96 545.25
  L 398.85 545.80
  Q 398.38 545.85 398.04 545.53
  Q 397.09 544.64 395.84 544.75
  Q 395.30 544.80 395.05 544.31
  Q 393.79 541.87 391.47 543.02
  Q 391.03 543.24 390.55 543.11
  Q 387.29 542.24 383.87 542.11
  Q 383.50 542.09 383.17 541.94
  Q 381.28 541.07 379.21 541.50"
/>
</g>
<path fill="#a02844" d="
  M 506.82 363.51
  Q 497.58 364.15 488.00 363.46
  Q 502.62 301.35 517.28 239.26
  C 518.70 233.26 525.44 233.59 524.55 239.42
  C 518.26 280.71 513.01 322.17 506.82 363.51
  Z"
/>
<path fill="#524b6c" d="
  M 457.50 368.79
  Q 449.61 372.29 441.25 374.46
  Q 436.56 352.06 429.25 313.25
  Q 428.79 310.82 429.15 308.93
  Q 429.25 308.43 429.65 308.10
  C 432.42 305.89 434.65 306.75 435.82 309.95
  Q 444.59 333.97 453.20 358.01
  Q 455.00 363.03 455.91 368.26
  Q 456.00 368.73 456.47 368.75
  L 457.50 368.79
  Z"
/>
<path fill="#ed2137" d="
  M 534.75 366.96
  Q 528.00 366.60 521.50 364.71
  Q 521.50 363.98 521.71 363.31
  Q 529.35 338.84 537.71 314.61
  C 539.08 310.66 545.82 311.32 544.68 316.86
  Q 539.80 340.67 534.95 364.49
  Q 534.70 365.71 534.75 366.96
  Z"
/>
<path fill="#0aaab3" d="
  M 397.75 403.29
  C 394.11 407.67 389.93 411.46 386.32 415.84
  A 0.73 0.72 -30.7 0 1 385.05 415.52
  Q 384.72 413.88 383.25 413.54
  Q 359.30 366.93 335.85 320.06
  C 333.42 315.19 338.12 311.53 340.48 315.26
  Q 368.33 359.13 396.48 402.80
  Q 396.74 403.20 397.21 403.24
  L 397.75 403.29
  Z"
/>
<path fill="#ed2137" d="
  M 616.79 417.21
  L 604.25 404.29
  C 629.89 377.70 654.00 349.05 678.36 321.26
  C 682.35 316.70 686.96 321.02 684.38 324.62
  Q 651.59 370.40 618.31 415.84
  Q 617.89 416.40 616.79 417.21
  Z"
/>
<path fill="#ed2137" d="
  M 583.46 387.50
  Q 578.02 385.69 573.13 381.91
  Q 593.49 352.45 613.24 322.46
  C 615.76 318.63 620.78 321.76 618.74 325.38
  Q 601.22 356.51 583.46 387.50
  Z"
/>
<path fill="#9ab8dc" d="
  M 488.00 363.46
  Q 497.58 364.15 506.82 363.51
  L 521.50 364.71
  Q 528.00 366.60 534.75 366.96
  Q 555.10 372.10 573.13 381.91
  Q 578.02 385.69 583.46 387.50
  Q 594.25 395.40 604.25 404.29
  L 616.79 417.21
  Q 626.24 429.59 633.79 443.25
  C 634.42 444.81 638.48 454.99 639.96 454.75
  Q 639.99 455.47 640.22 456.13
  Q 645.38 470.44 649.12 485.00
  L 648.96 488.75
  L 648.04 489.25
  Q 645.99 476.77 641.50 464.96
  C 636.54 450.31 629.78 437.79 621.00 425.43
  C 604.87 402.72 580.78 384.95 555.04 375.50
  Q 540.94 369.41 525.75 367.21
  C 495.20 362.29 463.76 365.49 435.75 379.04
  C 396.21 398.44 367.53 432.58 357.00 475.21
  Q 350.94 499.15 353.04 523.75
  Q 354.77 545.30 362.50 565.46
  L 361.29 566.00
  L 360.25 564.46
  L 355.71 549.25
  Q 352.98 536.35 351.46 523.25
  L 351.11 505.68
  Q 352.39 487.08 356.75 470.04
  C 359.42 466.83 361.41 458.20 362.46 454.00
  Q 370.83 434.26 384.34 417.65
  Q 384.69 417.23 384.49 416.72
  L 383.25 413.54
  Q 384.72 413.88 385.05 415.52
  A 0.73 0.72 -30.7 0 0 386.32 415.84
  C 389.93 411.46 394.11 407.67 397.75 403.29
  Q 417.05 385.18 441.25 374.46
  Q 449.61 372.29 457.50 368.79
  Q 472.56 365.04 488.00 363.46
  Z"
/>
<path fill="#524b6c" d="
  M 525.75 367.21
  C 525.07 367.89 520.62 371.55 521.20 372.20
  Q 521.54 372.58 521.07 372.79
  Q 519.07 373.67 518.00 375.59
  Q 517.74 376.04 517.23 376.02
  Q 514.24 375.85 511.89 378.04
  A 0.36 0.36 0.0 0 0 512.20 378.65
  Q 512.71 378.55 513.28 378.92
  Q 513.51 379.06 513.50 379.32
  Q 513.50 379.46 513.50 379.59
  Q 513.48 379.93 513.15 379.96
  Q 508.66 380.39 507.75 384.96
  C 477.49 384.35 451.48 390.32 426.54 407.75
  Q 425.28 407.55 424.75 406.51
  Q 424.51 406.05 424.89 405.70
  L 428.32 402.43
  Q 428.63 402.13 428.76 401.72
  L 429.55 399.22
  Q 429.68 398.81 430.00 398.51
  Q 432.34 396.35 434.55 394.05
  Q 436.04 392.49 434.24 393.68
  L 431.92 395.21
  Q 431.41 395.55 431.73 395.02
  Q 431.84 394.84 431.93 394.69
  Q 432.20 394.21 431.72 394.47
  L 430.27 395.27
  Q 430.12 395.35 430.06 395.19
  Q 430.02 395.05 429.97 394.92
  Q 429.78 394.37 430.32 394.16
  Q 431.67 393.62 431.56 392.06
  Q 431.52 391.56 431.12 391.87
  Q 429.42 393.17 427.37 392.97
  Q 425.46 392.78 427.24 392.05
  Q 428.53 391.52 428.69 389.86
  Q 428.74 389.39 428.40 389.72
  L 427.96 390.17
  Q 427.40 390.73 427.78 390.04
  C 429.91 386.18 430.76 383.72 434.97 381.72
  Q 435.44 381.50 435.50 380.98
  L 435.75 379.04
  C 463.76 365.49 495.20 362.29 525.75 367.21
  Z"
/>
<path fill="#a02844" d="
  M 525.75 367.21
  Q 540.94 369.41 555.04 375.50
  Q 550.19 378.23 549.30 383.51
  Q 549.22 384.00 548.72 384.00
  L 547.50 384.00
  Q 547.00 384.00 547.00 384.50
  L 547.00 385.25
  Q 547.00 385.91 546.41 385.62
  Q 545.00 384.90 543.77 385.62
  Q 543.32 385.89 542.83 385.74
  Q 541.28 385.26 540.11 386.17
  Q 539.89 386.34 540.03 386.58
  L 540.20 386.87
  Q 540.39 387.19 540.03 387.11
  Q 536.88 386.40 536.00 389.96
  Q 525.92 387.00 515.50 385.71
  L 507.75 384.96
  Q 508.66 380.39 513.15 379.96
  Q 513.48 379.93 513.50 379.59
  Q 513.50 379.46 513.50 379.32
  Q 513.51 379.06 513.28 378.92
  Q 512.71 378.55 512.20 378.65
  A 0.36 0.36 0.0 0 1 511.89 378.04
  Q 514.24 375.85 517.23 376.02
  Q 517.74 376.04 518.00 375.59
  Q 519.07 373.67 521.07 372.79
  Q 521.54 372.58 521.20 372.20
  C 520.62 371.55 525.07 367.89 525.75 367.21
  Z"
/>
<path fill="#ed2137" d="
  M 639.96 454.75
  C 638.48 454.99 634.42 444.81 633.79 443.25
  Q 669.88 413.33 715.03 373.02
  C 718.44 369.97 722.60 375.30 718.70 378.34
  Q 716.63 379.95 716.59 379.99
  Q 684.06 411.25 651.72 442.72
  Q 645.69 448.58 639.96 454.75
  Z"
/>
<path fill="#ed2137" d="
  M 555.04 375.50
  C 580.78 384.95 604.87 402.72 621.00 425.43
  C 629.78 437.79 636.54 450.31 641.50 464.96
  Q 640.95 467.10 641.59 469.14
  Q 641.72 469.56 641.37 469.82
  C 638.96 471.60 638.42 473.69 636.99 476.20
  Q 636.76 476.60 636.31 476.70
  Q 635.20 476.95 634.99 478.15
  Q 634.92 478.56 635.06 478.95
  C 635.63 480.59 634.77 482.25 634.65 483.45
  Q 633.77 492.37 632.10 501.16
  Q 631.92 502.07 631.43 502.85
  Q 631.24 503.14 631.25 502.79
  Q 631.25 502.60 631.26 502.40
  Q 631.31 501.79 630.78 502.10
  L 630.49 502.27
  Q 630.33 502.36 630.27 502.20
  Q 629.62 500.51 628.29 499.25
  C 622.02 447.52 586.31 404.31 536.00 389.96
  Q 536.88 386.40 540.03 387.11
  Q 540.39 387.19 540.20 386.87
  L 540.03 386.58
  Q 539.89 386.34 540.11 386.17
  Q 541.28 385.26 542.83 385.74
  Q 543.32 385.89 543.77 385.62
  Q 545.00 384.90 546.41 385.62
  Q 547.00 385.91 547.00 385.25
  L 547.00 384.50
  Q 547.00 384.00 547.50 384.00
  L 548.72 384.00
  Q 549.22 384.00 549.30 383.51
  Q 550.19 378.23 555.04 375.50
  Z"
/>
<path fill="#0aaab3" d="
  M 362.46 454.00
  C 361.41 458.20 359.42 466.83 356.75 470.04
  Q 350.96 464.48 342.47 455.53
  Q 305.82 416.94 276.11 384.36
  C 274.10 382.16 273.45 380.62 276.13 378.58
  Q 278.16 377.03 280.01 378.73
  Q 321.03 416.37 362.07 453.99
  Q 362.15 454.07 362.32 454.02
  Q 362.40 454.00 362.46 454.00
  Z"
/>
<path fill="#26737e" d="
  M 435.75 379.04
  L 435.50 380.98
  Q 435.44 381.50 434.97 381.72
  C 430.76 383.72 429.91 386.18 427.78 390.04
  Q 427.40 390.73 427.96 390.17
  L 428.40 389.72
  Q 428.74 389.39 428.69 389.86
  Q 428.53 391.52 427.24 392.05
  Q 425.46 392.78 427.37 392.97
  Q 429.42 393.17 431.12 391.87
  Q 431.52 391.56 431.56 392.06
  Q 431.67 393.62 430.32 394.16
  Q 429.78 394.37 429.97 394.92
  Q 430.02 395.05 430.06 395.19
  Q 430.12 395.35 430.27 395.27
  L 431.72 394.47
  Q 432.20 394.21 431.93 394.69
  Q 431.84 394.84 431.73 395.02
  Q 431.41 395.55 431.92 395.21
  L 434.24 393.68
  Q 436.04 392.49 434.55 394.05
  Q 432.34 396.35 430.00 398.51
  Q 429.68 398.81 429.55 399.22
  L 428.76 401.72
  Q 428.63 402.13 428.32 402.43
  L 424.89 405.70
  Q 424.51 406.05 424.75 406.51
  Q 425.28 407.55 426.54 407.75
  C 389.34 435.13 369.66 478.62 373.96 524.75
  L 372.84 523.59
  Q 372.63 523.37 372.35 523.47
  L 371.99 523.59
  Q 371.53 523.74 371.52 523.25
  C 371.49 521.97 370.81 521.23 370.73 520.10
  Q 370.57 517.95 371.22 515.92
  Q 371.35 515.49 371.26 515.05
  L 370.00 509.02
  Q 369.89 508.48 369.75 509.02
  L 369.45 510.22
  Q 369.35 510.65 369.34 510.21
  Q 369.30 508.24 367.71 507.35
  Q 367.29 507.12 367.17 506.64
  Q 365.28 499.17 366.89 491.66
  Q 366.93 491.51 366.87 491.36
  Q 366.82 491.21 366.74 491.07
  Q 366.60 490.80 366.54 491.10
  Q 366.49 491.31 366.40 491.55
  Q 366.24 491.97 366.22 491.52
  Q 365.95 484.67 368.84 478.46
  Q 369.10 477.90 368.79 477.37
  Q 368.20 476.34 369.09 475.44
  Q 369.58 474.95 369.09 474.46
  L 368.64 474.02
  Q 368.22 473.60 368.41 473.04
  L 369.82 468.85
  Q 370.01 468.27 369.58 467.85
  Q 368.10 466.41 369.29 464.69
  Q 369.85 463.88 368.89 463.68
  C 365.74 463.03 366.08 467.62 365.70 469.55
  Q 365.61 470.00 365.32 470.36
  L 362.18 474.26
  Q 361.92 474.58 361.72 474.22
  C 360.60 472.16 358.25 474.58 357.00 475.21
  C 367.53 432.58 396.21 398.44 435.75 379.04
  Z"
/>
<path fill="#0aaab3" d="
  M 507.75 384.96
  L 515.50 385.71
  L 514.00 387.46
  Q 498.73 385.76 483.50 387.79
  Q 459.88 390.57 439.25 402.29
  C 395.83 425.75 372.58 472.75 375.73 521.56
  Q 376.24 529.45 379.21 541.50
  Q 385.50 567.15 401.25 588.29
  L 407.33 596.36
  Q 407.55 596.66 407.20 596.78
  Q 406.41 597.04 406.00 597.79
  Q 389.40 578.75 380.71 555.00
  Q 375.62 540.26 373.96 524.75
  C 369.66 478.62 389.34 435.13 426.54 407.75
  C 451.48 390.32 477.49 384.35 507.75 384.96
  Z"
/>
<path fill="#d7bd38" d="
  M 515.50 385.71
  Q 525.92 387.00 536.00 389.96
  C 586.31 404.31 622.02 447.52 628.29 499.25
  Q 632.06 536.45 615.50 569.71
  C 586.01 626.99 523.21 652.55 461.52 634.00
  Q 461.25 633.92 461.37 634.18
  Q 461.67 634.82 461.35 635.55
  Q 461.29 635.70 461.15 635.78
  L 460.71 636.04
  Q 460.29 636.29 460.77 636.38
  Q 461.53 636.53 462.08 637.04
  Q 462.79 637.68 461.88 637.40
  Q 460.81 637.06 459.76 636.73
  Q 440.23 630.56 459.56 636.94
  Q 459.66 636.97 459.76 636.99
  Q 461.00 637.27 459.75 637.25
  Q 459.62 637.25 459.48 637.24
  Q 459.22 637.23 459.42 637.41
  L 459.65 637.61
  Q 460.11 638.00 459.53 637.84
  C 455.82 636.80 453.26 635.95 449.33 635.73
  C 446.66 635.58 444.66 634.31 442.22 633.29
  Q 441.80 633.12 442.01 633.52
  L 442.23 633.92
  Q 442.60 634.62 441.83 634.43
  L 437.67 633.36
  Q 437.39 633.29 437.53 633.54
  L 437.69 633.85
  Q 437.85 634.14 437.52 634.14
  Q 432.75 634.16 428.64 631.60
  Q 428.31 631.39 428.49 631.73
  L 428.71 632.13
  Q 428.89 632.48 428.51 632.38
  L 420.08 630.28
  Q 419.96 630.25 419.98 630.37
  L 420.33 633.55
  A 0.43 0.42 76.8 0 0 420.90 633.91
  Q 423.54 632.91 425.09 635.33
  Q 425.35 635.75 424.86 635.75
  Q 424.65 635.75 424.42 635.75
  Q 423.92 635.74 423.99 636.23
  Q 424.11 637.10 423.41 637.57
  Q 423.04 637.82 423.32 638.18
  C 424.71 639.95 426.58 640.69 428.18 641.71
  C 435.33 646.31 441.90 648.80 449.09 651.90
  Q 454.82 654.37 459.84 655.60
  C 472.37 658.66 485.45 661.11 498.51 661.27
  C 519.63 661.54 539.31 658.35 558.63 649.61
  Q 569.06 644.90 576.04 641.02
  C 609.20 622.61 634.51 588.71 644.71 552.50
  C 649.00 537.82 650.17 523.65 650.21 508.40
  C 650.23 502.04 649.04 495.59 648.04 489.25
  L 648.96 488.75
  Q 649.62 495.31 651.48 501.50
  Q 650.85 507.70 651.56 514.79
  Q 650.22 521.62 650.79 529.25
  Q 648.29 544.95 643.96 560.25
  C 640.91 564.75 639.16 570.76 637.50 575.96
  Q 630.44 589.81 621.50 602.54
  Q 620.89 602.89 620.45 603.43
  Q 614.83 610.31 608.65 616.70
  C 608.14 617.22 608.04 617.82 607.75 618.46
  Q 597.43 627.87 586.34 636.35
  Q 586.27 636.40 586.25 636.49
  Q 586.23 636.62 586.21 636.75
  Q 579.83 639.33 574.50 643.71
  Q 560.95 651.11 546.50 656.54
  L 526.28 661.13
  L 512.50 662.79
  L 496.75 663.29
  Q 478.56 661.91 460.79 657.75
  Q 453.01 655.09 445.50 651.75
  Q 444.91 651.49 443.68 651.59
  C 430.97 645.65 423.12 640.74 413.00 634.46
  Q 407.01 628.97 401.06 623.44
  Q 400.10 622.54 398.50 622.96
  C 397.83 620.51 392.47 615.91 390.59 614.07
  Q 386.37 608.06 381.54 603.00
  Q 368.85 585.90 361.29 566.00
  L 362.50 565.46
  C 365.66 572.74 368.76 580.27 372.78 586.83
  Q 378.08 595.49 384.50 603.75
  A 1.47 1.47 0.0 0 0 385.69 604.33
  L 388.12 604.30
  Q 388.63 604.29 388.76 604.78
  Q 389.44 607.26 391.57 608.10
  C 393.51 608.85 395.17 609.71 396.95 610.69
  Q 397.33 610.90 397.49 610.50
  Q 397.66 610.05 398.16 610.33
  Q 398.88 610.74 398.42 610.06
  Q 398.14 609.65 397.76 609.52
  Q 396.78 609.18 397.75 609.07
  Q 398.74 608.95 399.30 609.59
  Q 399.66 610.00 400.20 610.00
  Q 400.34 610.00 400.50 610.00
  Q 401.36 610.00 401.01 609.22
  Q 400.49 608.10 399.36 607.99
  Q 398.85 607.94 398.86 607.43
  Q 398.88 606.66 398.18 606.23
  Q 397.34 605.73 398.28 605.45
  Q 398.84 605.29 399.49 605.82
  Q 402.15 608.00 399.80 605.25
  Q 399.42 604.80 398.93 604.36
  Q 398.30 603.80 399.14 603.79
  L 399.58 603.79
  Q 399.83 603.79 400.07 603.69
  Q 401.12 603.27 400.54 602.12
  Q 400.26 601.58 400.85 601.75
  Q 403.61 602.56 405.93 604.32
  Q 406.46 604.72 407.00 604.34
  Q 408.01 603.63 408.61 604.49
  Q 408.94 604.96 409.51 604.98
  L 412.45 605.09
  Q 412.93 605.10 412.60 604.76
  L 406.00 597.79
  Q 406.41 597.04 407.20 596.78
  Q 407.55 596.66 407.33 596.36
  L 401.25 588.29
  Q 403.09 586.71 405.46 587.08
  Q 405.89 587.15 406.22 586.87
  Q 406.87 586.31 407.71 586.50
  Q 408.28 586.63 408.56 586.13
  Q 409.34 584.78 410.85 584.99
  Q 411.17 585.03 411.40 584.80
  L 411.67 584.54
  Q 412.13 584.08 412.68 584.43
  Q 414.06 585.29 415.69 584.94
  Q 416.00 584.87 416.00 584.55
  Q 416.00 584.39 416.00 584.24
  Q 416.00 583.90 416.34 583.94
  Q 421.23 584.53 424.75 581.21
  Q 449.03 607.75 484.50 614.57
  Q 482.03 615.21 481.56 617.57
  Q 481.44 618.17 482.05 618.27
  Q 484.70 618.71 485.42 621.20
  Q 485.56 621.70 486.08 621.74
  Q 486.62 621.78 487.07 622.32
  Q 487.35 622.65 487.24 623.07
  L 486.99 624.09
  Q 486.87 624.54 486.41 624.52
  L 485.44 624.47
  Q 485.12 624.46 484.98 624.75
  L 484.17 626.53
  Q 483.90 627.12 483.25 627.05
  Q 481.06 626.80 479.67 628.63
  Q 479.42 628.96 479.03 629.10
  Q 473.90 630.84 470.20 631.16
  Q 467.51 631.39 467.29 633.41
  Q 467.23 633.94 467.75 634.07
  C 490.89 639.98 516.10 640.15 538.86 632.76
  C 584.17 618.04 618.71 578.93 625.46 531.25
  Q 626.32 527.32 626.57 523.32
  C 627.84 502.69 625.06 481.22 616.54 462.25
  Q 595.64 414.00 546.50 395.21
  Q 530.80 389.03 514.00 387.46
  L 515.50 385.71
  Z"
/>
<path fill="#a3456d" d="
  M 514.00 387.46
  Q 530.80 389.03 546.50 395.21
  Q 543.11 396.79 540.47 400.23
  Q 536.92 404.87 531.23 410.24
  Q 530.05 411.35 530.25 413.71
  Q 505.57 406.56 480.29 411.50
  L 483.50 387.79
  Q 498.73 385.76 514.00 387.46
  Z"
/>
<path fill="#5d6089" d="
  M 483.50 387.79
  L 480.29 411.50
  Q 459.13 416.23 441.29 428.50
  C 441.81 425.06 437.57 416.74 436.07 413.27
  Q 435.86 412.80 435.98 412.30
  Q 436.46 410.15 436.75 406.49
  Q 436.91 404.42 438.83 403.41
  Q 439.24 403.20 439.25 402.73
  L 439.25 402.29
  Q 459.88 390.57 483.50 387.79
  Z"
/>
<path fill="#ed2137" d="
  M 546.50 395.21
  Q 595.64 414.00 616.54 462.25
  Q 616.28 463.91 616.75 465.62
  Q 616.91 466.22 616.31 466.35
  Q 612.13 467.29 608.60 469.70
  Q 608.14 470.02 607.75 469.61
  Q 607.12 468.95 606.05 469.31
  Q 605.60 469.46 605.26 469.78
  Q 602.73 472.16 599.29 472.63
  Q 598.77 472.70 598.88 473.21
  Q 598.93 473.47 598.67 473.58
  Q 598.05 473.85 598.27 474.48
  L 599.80 478.83
  Q 599.95 479.27 599.78 479.70
  L 599.25 481.04
  Q 581.35 430.39 530.25 413.71
  Q 530.05 411.35 531.23 410.24
  Q 536.92 404.87 540.47 400.23
  Q 543.11 396.79 546.50 395.21
  Z"
/>
<path fill="#2f9191" d="
  M 439.25 402.29
  L 439.25 402.73
  Q 439.24 403.20 438.83 403.41
  Q 436.91 404.42 436.75 406.49
  Q 436.46 410.15 435.98 412.30
  Q 435.86 412.80 436.07 413.27
  C 437.57 416.74 441.81 425.06 441.29 428.50
  C 404.70 455.63 388.93 501.60 403.96 545.25
  L 398.85 545.80
  Q 398.38 545.85 398.04 545.53
  Q 397.09 544.64 395.84 544.75
  Q 395.30 544.80 395.05 544.31
  Q 393.79 541.87 391.47 543.02
  Q 391.03 543.24 390.55 543.11
  Q 387.29 542.24 383.87 542.11
  Q 383.50 542.09 383.17 541.94
  Q 381.28 541.07 379.21 541.50
  Q 376.24 529.45 375.73 521.56
  C 372.58 472.75 395.83 425.75 439.25 402.29
  Z"
/>
<path fill="#fa8f25" d="
  M 651.48 501.50
  Q 649.62 495.31 648.96 488.75
  L 649.12 485.00
  L 756.42 431.78
  Q 756.89 431.55 757.31 431.85
  Q 759.44 433.35 759.77 436.04
  Q 759.84 436.66 759.36 437.05
  Q 758.15 438.03 756.05 439.29
  Q 705.30 469.83 654.46 500.22
  Q 653.03 501.07 651.48 501.50
  Z"
/>
<path fill="#fefefe" d="
  M 522.47 520.60
  L 554.19 566.64
  A 0.39 0.39 0.0 0 1 553.87 567.25
  L 538.49 567.25
  Q 537.92 567.25 537.60 566.78
  Q 523.25 545.98 509.21 525.06
  Q 508.46 523.95 507.08 522.75
  Q 506.71 522.42 506.21 522.44
  Q 493.79 522.86 481.37 522.74
  C 480.48 522.73 478.65 522.30 477.29 522.54
  Q 476.74 522.64 476.74 523.20
  L 477.03 566.33
  Q 477.03 567.00 476.36 567.00
  L 464.37 567.00
  Q 463.75 567.00 463.74 566.37
  L 463.40 455.67
  Q 463.39 454.96 464.10 454.97
  C 483.76 455.07 495.45 454.55 509.77 454.87
  Q 517.97 455.05 523.14 456.77
  C 553.63 466.87 554.67 510.08 522.72 519.88
  A 0.48 0.47 64.2 0 0 522.47 520.60
  Z
  M 476.86 467.44
  L 476.64 509.72
  A 0.28 0.28 0.0 0 0 476.92 510.00
  L 509.25 510.17
  A 23.83 21.42 0.3 0 0 533.19 488.88
  L 533.19 488.88
  A 23.83 21.42 0.3 0 0 509.47 467.33
  L 477.14 467.16
  A 0.28 0.28 0.0 0 0 476.86 467.44
  Z"
/>
<path fill="#fc472c" d="
  M 616.54 462.25
  C 625.06 481.22 627.84 502.69 626.57 523.32
  Q 626.32 527.32 625.46 531.25
  Q 624.19 532.01 624.16 533.04
  Q 624.15 533.52 624.28 533.97
  Q 624.67 535.27 624.28 536.32
  Q 624.07 536.89 623.54 536.61
  Q 623.09 536.39 623.01 535.99
  Q 622.89 535.40 622.35 535.11
  Q 617.25 532.36 611.38 532.81
  Q 610.75 532.86 610.75 532.22
  L 610.75 531.82
  Q 610.75 531.37 610.31 531.45
  L 604.95 532.48
  Q 604.55 532.55 604.76 532.20
  L 604.93 531.93
  Q 605.19 531.48 604.44 531.69
  Q 604.20 531.75 604.12 531.35
  Q 604.09 531.16 604.13 530.96
  Q 604.26 530.30 604.03 529.61
  Q 603.80 528.92 603.44 529.54
  Q 602.79 530.66 602.95 531.97
  Q 602.99 532.22 602.75 532.12
  Q 602.59 532.06 602.50 531.96
  Q 607.20 506.06 599.25 481.04
  L 599.78 479.70
  Q 599.95 479.27 599.80 478.83
  L 598.27 474.48
  Q 598.05 473.85 598.67 473.58
  Q 598.93 473.47 598.88 473.21
  Q 598.77 472.70 599.29 472.63
  Q 602.73 472.16 605.26 469.78
  Q 605.60 469.46 606.05 469.31
  Q 607.12 468.95 607.75 469.61
  Q 608.14 470.02 608.60 469.70
  Q 612.13 467.29 616.31 466.35
  Q 616.91 466.22 616.75 465.62
  Q 616.28 463.91 616.54 462.25
  Z"
/>
<path fill="#3b8f6f" d="
  M 373.96 524.75
  Q 375.62 540.26 380.71 555.00
  Q 378.97 555.33 378.00 553.94
  Q 377.72 553.54 377.29 553.30
  C 373.12 550.96 371.72 536.39 371.13 533.71
  Q 371.02 533.24 370.57 533.06
  Q 370.04 532.85 369.63 532.29
  Q 369.00 531.45 369.00 532.50
  L 369.00 532.99
  Q 369.00 533.62 368.55 533.19
  C 366.36 531.06 366.84 528.16 363.69 525.86
  Q 363.57 525.78 363.53 525.91
  L 363.44 526.19
  Q 363.38 526.38 363.31 526.19
  L 363.17 525.77
  Q 363.05 525.42 362.88 525.74
  L 361.70 528.06
  Q 361.51 528.41 361.13 528.29
  Q 360.89 528.21 360.75 528.36
  Q 360.29 528.84 359.93 528.29
  C 358.59 526.22 359.61 523.07 357.39 522.22
  Q 356.96 522.05 356.52 522.22
  Q 355.83 522.49 356.22 522.94
  Q 356.66 523.44 356.10 523.81
  Q 354.76 524.70 353.75 523.58
  Q 353.58 523.39 353.37 523.53
  L 353.04 523.75
  Q 350.94 499.15 357.00 475.21
  C 358.25 474.58 360.60 472.16 361.72 474.22
  Q 361.92 474.58 362.18 474.26
  L 365.32 470.36
  Q 365.61 470.00 365.70 469.55
  C 366.08 467.62 365.74 463.03 368.89 463.68
  Q 369.85 463.88 369.29 464.69
  Q 368.10 466.41 369.58 467.85
  Q 370.01 468.27 369.82 468.85
  L 368.41 473.04
  Q 368.22 473.60 368.64 474.02
  L 369.09 474.46
  Q 369.58 474.95 369.09 475.44
  Q 368.20 476.34 368.79 477.37
  Q 369.10 477.90 368.84 478.46
  Q 365.95 484.67 366.22 491.52
  Q 366.24 491.97 366.40 491.55
  Q 366.49 491.31 366.54 491.10
  Q 366.60 490.80 366.74 491.07
  Q 366.82 491.21 366.87 491.36
  Q 366.93 491.51 366.89 491.66
  Q 365.28 499.17 367.17 506.64
  Q 367.29 507.12 367.71 507.35
  Q 369.30 508.24 369.34 510.21
  Q 369.35 510.65 369.45 510.22
  L 369.75 509.02
  Q 369.89 508.48 370.00 509.02
  L 371.26 515.05
  Q 371.35 515.49 371.22 515.92
  Q 370.57 517.95 370.73 520.10
  C 370.81 521.23 371.49 521.97 371.52 523.25
  Q 371.53 523.74 371.99 523.59
  L 372.35 523.47
  Q 372.63 523.37 372.84 523.59
  L 373.96 524.75
  Z"
/>
<path fill="#fc472c" d="
  M 641.50 464.96
  Q 645.99 476.77 648.04 489.25
  C 649.04 495.59 650.23 502.04 650.21 508.40
  C 650.17 523.65 649.00 537.82 644.71 552.50
  Q 643.91 552.61 643.19 552.32
  Q 642.83 552.17 643.01 552.51
  L 643.13 552.74
  Q 643.37 553.19 642.89 553.38
  C 639.72 554.60 636.91 555.36 634.32 557.73
  Q 630.81 560.94 627.35 564.20
  C 624.94 566.47 621.31 570.63 617.76 573.40
  Q 617.59 573.53 617.53 573.33
  Q 617.48 573.20 617.43 573.06
  Q 616.92 571.65 616.82 573.39
  Q 616.72 575.26 615.18 576.06
  Q 614.56 576.37 614.66 575.69
  L 615.50 569.71
  Q 632.06 536.45 628.29 499.25
  Q 629.62 500.51 630.27 502.20
  Q 630.33 502.36 630.49 502.27
  L 630.78 502.10
  Q 631.31 501.79 631.26 502.40
  Q 631.25 502.60 631.25 502.79
  Q 631.24 503.14 631.43 502.85
  Q 631.92 502.07 632.10 501.16
  Q 633.77 492.37 634.65 483.45
  C 634.77 482.25 635.63 480.59 635.06 478.95
  Q 634.92 478.56 634.99 478.15
  Q 635.20 476.95 636.31 476.70
  Q 636.76 476.60 636.99 476.20
  C 638.42 473.69 638.96 471.60 641.37 469.82
  Q 641.72 469.56 641.59 469.14
  Q 640.95 467.10 641.50 464.96
  Z"
/>
<path fill="#0aaab3" d="
  M 351.11 505.68
  L 351.46 523.25
  C 315.28 512.02 279.31 500.11 243.25 488.50
  C 238.69 487.03 240.46 481.03 244.22 481.89
  Q 297.62 494.04 351.11 505.68
  Z"
/>
<path fill="#fa8f25" d="
  M 650.79 529.25
  Q 650.22 521.62 651.56 514.79
  Q 714.39 508.59 777.06 501.08
  Q 778.93 500.86 780.79 501.05
  Q 781.33 501.11 781.69 501.52
  Q 783.34 503.44 782.54 505.98
  Q 782.37 506.51 781.83 506.67
  Q 779.77 507.30 778.94 507.45
  Q 714.93 518.72 650.79 529.25
  Z"
/>
<path fill="#86b15e" d="
  M 380.71 555.00
  Q 389.40 578.75 406.00 597.79
  L 412.60 604.76
  Q 412.93 605.10 412.45 605.09
  L 409.51 604.98
  Q 408.94 604.96 408.61 604.49
  Q 408.01 603.63 407.00 604.34
  Q 406.46 604.72 405.93 604.32
  Q 403.61 602.56 400.85 601.75
  Q 400.26 601.58 400.54 602.12
  Q 401.12 603.27 400.07 603.69
  Q 399.83 603.79 399.58 603.79
  L 399.14 603.79
  Q 398.30 603.80 398.93 604.36
  Q 399.42 604.80 399.80 605.25
  Q 402.15 608.00 399.49 605.82
  Q 398.84 605.29 398.28 605.45
  Q 397.34 605.73 398.18 606.23
  Q 398.88 606.66 398.86 607.43
  Q 398.85 607.94 399.36 607.99
  Q 400.49 608.10 401.01 609.22
  Q 401.36 610.00 400.50 610.00
  Q 400.34 610.00 400.20 610.00
  Q 399.66 610.00 399.30 609.59
  Q 398.74 608.95 397.75 609.07
  Q 396.78 609.18 397.76 609.52
  Q 398.14 609.65 398.42 610.06
  Q 398.88 610.74 398.16 610.33
  Q 397.66 610.05 397.49 610.50
  Q 397.33 610.90 396.95 610.69
  C 395.17 609.71 393.51 608.85 391.57 608.10
  Q 389.44 607.26 388.76 604.78
  Q 388.63 604.29 388.12 604.30
  L 385.69 604.33
  A 1.47 1.47 0.0 0 1 384.50 603.75
  Q 378.08 595.49 372.78 586.83
  C 368.76 580.27 365.66 572.74 362.50 565.46
  Q 354.77 545.30 353.04 523.75
  L 353.37 523.53
  Q 353.58 523.39 353.75 523.58
  Q 354.76 524.70 356.10 523.81
  Q 356.66 523.44 356.22 522.94
  Q 355.83 522.49 356.52 522.22
  Q 356.96 522.05 357.39 522.22
  C 359.61 523.07 358.59 526.22 359.93 528.29
  Q 360.29 528.84 360.75 528.36
  Q 360.89 528.21 361.13 528.29
  Q 361.51 528.41 361.70 528.06
  L 362.88 525.74
  Q 363.05 525.42 363.17 525.77
  L 363.31 526.19
  Q 363.38 526.38 363.44 526.19
  L 363.53 525.91
  Q 363.57 525.78 363.69 525.86
  C 366.84 528.16 366.36 531.06 368.55 533.19
  Q 369.00 533.62 369.00 532.99
  L 369.00 532.50
  Q 369.00 531.45 369.63 532.29
  Q 370.04 532.85 370.57 533.06
  Q 371.02 533.24 371.13 533.71
  C 371.72 536.39 373.12 550.96 377.29 553.30
  Q 377.72 553.54 378.00 553.94
  Q 378.97 555.33 380.71 555.00
  Z"
/>
<path fill="#fe9e31" d="
  M 625.46 531.25
  C 618.71 578.93 584.17 618.04 538.86 632.76
  C 516.10 640.15 490.89 639.98 467.75 634.07
  Q 467.23 633.94 467.29 633.41
  Q 467.51 631.39 470.20 631.16
  Q 473.90 630.84 479.03 629.10
  Q 479.42 628.96 479.67 628.63
  Q 481.06 626.80 483.25 627.05
  Q 483.90 627.12 484.17 626.53
  L 484.98 624.75
  Q 485.12 624.46 485.44 624.47
  L 486.41 624.52
  Q 486.87 624.54 486.99 624.09
  L 487.24 623.07
  Q 487.35 622.65 487.07 622.32
  Q 486.62 621.78 486.08 621.74
  Q 485.56 621.70 485.42 621.20
  Q 484.70 618.71 482.05 618.27
  Q 481.44 618.17 481.56 617.57
  Q 482.03 615.21 484.50 614.57
  C 540.89 622.27 590.79 587.71 602.50 531.96
  Q 602.59 532.06 602.75 532.12
  Q 602.99 532.22 602.95 531.97
  Q 602.79 530.66 603.44 529.54
  Q 603.80 528.92 604.03 529.61
  Q 604.26 530.30 604.13 530.96
  Q 604.09 531.16 604.12 531.35
  Q 604.20 531.75 604.44 531.69
  Q 605.19 531.48 604.93 531.93
  L 604.76 532.20
  Q 604.55 532.55 604.95 532.48
  L 610.31 531.45
  Q 610.75 531.37 610.75 531.82
  L 610.75 532.22
  Q 610.75 532.86 611.38 532.81
  Q 617.25 532.36 622.35 535.11
  Q 622.89 535.40 623.01 535.99
  Q 623.09 536.39 623.54 536.61
  Q 624.07 536.89 624.28 536.32
  Q 624.67 535.27 624.28 533.97
  Q 624.15 533.52 624.16 533.04
  Q 624.19 532.01 625.46 531.25
  Z"
/>
<path fill="#86b15e" d="
  M 403.96 545.25
  Q 410.73 565.33 424.75 581.21
  Q 421.23 584.53 416.34 583.94
  Q 416.00 583.90 416.00 584.24
  Q 416.00 584.39 416.00 584.55
  Q 416.00 584.87 415.69 584.94
  Q 414.06 585.29 412.68 584.43
  Q 412.13 584.08 411.67 584.54
  L 411.40 584.80
  Q 411.17 585.03 410.85 584.99
  Q 409.34 584.78 408.56 586.13
  Q 408.28 586.63 407.71 586.50
  Q 406.87 586.31 406.22 586.87
  Q 405.89 587.15 405.46 587.08
  Q 403.09 586.71 401.25 588.29
  Q 385.50 567.15 379.21 541.50
  Q 381.28 541.07 383.17 541.94
  Q 383.50 542.09 383.87 542.11
  Q 387.29 542.24 390.55 543.11
  Q 391.03 543.24 391.47 543.02
  Q 393.79 541.87 395.05 544.31
  Q 395.30 544.80 395.84 544.75
  Q 397.09 544.64 398.04 545.53
  Q 398.38 545.85 398.85 545.80
  L 403.96 545.25
  Z"
/>
<path fill="#0aaab3" d="
  M 355.71 549.25
  L 360.25 564.46
  Q 309.25 557.40 258.22 550.48
  C 253.79 549.88 254.33 544.62 257.60 544.01
  Q 258.01 543.93 260.90 544.11
  Q 302.78 546.76 344.68 549.09
  Q 352.13 549.50 355.71 549.25
  Z"
/>
<path fill="#fa8f25" d="
  M 644.71 552.50
  C 634.51 588.71 609.20 622.61 576.04 641.02
  Q 569.06 644.90 558.63 649.61
  C 539.31 658.35 519.63 661.54 498.51 661.27
  C 485.45 661.11 472.37 658.66 459.84 655.60
  Q 454.82 654.37 449.09 651.90
  C 441.90 648.80 435.33 646.31 428.18 641.71
  C 426.58 640.69 424.71 639.95 423.32 638.18
  Q 423.04 637.82 423.41 637.57
  Q 424.11 637.10 423.99 636.23
  Q 423.92 635.74 424.42 635.75
  Q 424.65 635.75 424.86 635.75
  Q 425.35 635.75 425.09 635.33
  Q 423.54 632.91 420.90 633.91
  A 0.43 0.42 76.8 0 1 420.33 633.55
  L 419.98 630.37
  Q 419.96 630.25 420.08 630.28
  L 428.51 632.38
  Q 428.89 632.48 428.71 632.13
  L 428.49 631.73
  Q 428.31 631.39 428.64 631.60
  Q 432.75 634.16 437.52 634.14
  Q 437.85 634.14 437.69 633.85
  L 437.53 633.54
  Q 437.39 633.29 437.67 633.36
  L 441.83 634.43
  Q 442.60 634.62 442.23 633.92
  L 442.01 633.52
  Q 441.80 633.12 442.22 633.29
  C 444.66 634.31 446.66 635.58 449.33 635.73
  C 453.26 635.95 455.82 636.80 459.53 637.84
  Q 460.11 638.00 459.65 637.61
  L 459.42 637.41
  Q 459.22 637.23 459.48 637.24
  Q 459.62 637.25 459.75 637.25
  Q 461.00 637.27 459.76 636.99
  Q 459.66 636.97 459.56 636.94
  Q 440.23 630.56 459.76 636.73
  Q 460.81 637.06 461.88 637.40
  Q 462.79 637.68 462.08 637.04
  Q 461.53 636.53 460.77 636.38
  Q 460.29 636.29 460.71 636.04
  L 461.15 635.78
  Q 461.29 635.70 461.35 635.55
  Q 461.67 634.82 461.37 634.18
  Q 461.25 633.92 461.52 634.00
  C 523.21 652.55 586.01 626.99 615.50 569.71
  L 614.66 575.69
  Q 614.56 576.37 615.18 576.06
  Q 616.72 575.26 616.82 573.39
  Q 616.92 571.65 617.43 573.06
  Q 617.48 573.20 617.53 573.33
  Q 617.59 573.53 617.76 573.40
  C 621.31 570.63 624.94 566.47 627.35 564.20
  Q 630.81 560.94 634.32 557.73
  C 636.91 555.36 639.72 554.60 642.89 553.38
  Q 643.37 553.19 643.13 552.74
  L 643.01 552.51
  Q 642.83 552.17 643.19 552.32
  Q 643.91 552.61 644.71 552.50
  Z"
/>
<path fill="#fa8f25" d="
  M 643.96 560.25
  Q 703.52 592.75 763.23 624.98
  C 765.59 626.26 763.93 630.21 761.25 630.58
  Q 760.09 630.75 756.49 629.11
  Q 697.17 602.13 637.50 575.96
  C 639.16 570.76 640.91 564.75 643.96 560.25
  Z"
/>
<path fill="#fa8f25" d="
  M 621.50 602.54
  Q 685.17 650.46 747.95 699.54
  C 751.64 702.43 748.56 707.91 744.39 705.25
  Q 678.89 663.41 613.25 621.78
  Q 610.54 620.06 607.75 618.46
  C 608.04 617.82 608.14 617.22 608.65 616.70
  Q 614.83 610.31 620.45 603.43
  Q 620.89 602.89 621.50 602.54
  Z"
/>
<path fill="#915845" d="
  M 381.54 603.00
  Q 386.37 608.06 390.59 614.07
  Q 341.23 649.10 291.25 683.21
  C 288.54 685.06 285.79 686.17 284.36 682.14
  Q 284.18 681.65 284.44 681.21
  Q 285.35 679.64 287.05 678.30
  Q 321.26 651.49 381.18 603.90
  Q 381.46 603.68 381.51 603.33
  Q 381.53 603.16 381.54 603.00
  Z"
/>
<path fill="#fe9e31" d="
  M 413.00 634.46
  Q 409.95 637.45 408.92 638.67
  Q 364.79 690.54 320.70 742.44
  Q 318.88 744.58 316.84 746.52
  Q 316.49 746.85 316.01 746.89
  Q 313.35 747.12 312.05 744.64
  Q 311.82 744.19 311.97 743.71
  Q 312.48 742.01 313.55 740.56
  Q 356.65 682.21 398.50 622.96
  Q 400.10 622.54 401.06 623.44
  Q 407.01 628.97 413.00 634.46
  Z"
/>
<path fill="#fa8f25" d="
  M 586.21 636.75
  Q 586.48 637.92 586.74 638.25
  Q 620.09 678.76 653.71 719.04
  C 656.66 722.57 652.30 726.30 649.15 722.92
  Q 612.04 683.11 574.50 643.71
  Q 579.83 639.33 586.21 636.75
  Z"
/>
<path fill="#fe9e31" d="
  M 443.68 651.59
  Q 444.91 651.49 445.50 651.75
  Q 453.01 655.09 460.79 657.75
  Q 460.35 658.43 459.96 659.14
  Q 424.61 724.02 389.54 789.05
  C 388.07 791.78 383.48 790.30 383.49 787.42
  Q 383.50 786.30 384.64 783.89
  C 405.29 740.35 424.29 695.75 443.68 651.59
  Z"
/>
<path fill="#ed2137" d="
  M 546.50 656.54
  L 587.99 799.47
  A 1.96 1.94 -29.8 0 1 587.45 801.43
  C 584.86 803.90 582.63 802.90 581.32 799.86
  Q 579.03 794.56 576.97 789.26
  Q 551.92 725.08 526.28 661.13
  L 546.50 656.54
  Z"
/>
<path fill="#ed2137" d="
  M 512.50 662.79
  Q 512.65 719.02 512.83 775.25
  Q 512.84 776.68 512.55 778.13
  Q 512.44 778.67 511.95 778.89
  Q 509.86 779.84 507.62 779.33
  Q 507.07 779.21 506.88 778.68
  Q 506.15 776.67 506.07 775.69
  Q 501.57 719.48 496.75 663.29
  L 512.50 662.79
  Z"
/>
</svg>
