<svg width="899" height="598" fill="none" xmlns="http://www.w3.org/2000/svg">
  <path fill-rule="evenodd" clip-rule="evenodd" d="M234.115 261.044c.374 2.242-.6 6.204-5.319 11.138l19.927 48.213c3.896.673 7.492 3.215 9.29 7.102 2.997 6.353.225 13.903-6.068 16.893-6.368 2.915-13.935.224-16.931-6.129-1.798-3.887-1.424-8.223.524-11.736l-24.273-46.196c-7.042.449-10.638-1.42-12.061-3.064-.225-.299-1.724-3.738-1.724-3.738-3.895-10.689-.524-21.005-.524-21.005l3.521-1.644 5.919 15.249c4.944 2.766 9.739 1.794 9.739 1.794s3.82-2.99 4.869-8.522l-7.941-14.352 3.521-1.644s10.114 4.036 15.808 13.829c0 0 1.648 3.289 1.723 3.812Zm18.879 68.845-5.844-4.037-6.443 2.99-.599 7.027 5.844 4.036 6.367-2.99.675-7.026Z" fill="url(#a)"/>
  <path fill-rule="evenodd" clip-rule="evenodd" d="m230.519 275.994 19.928 48.213c3.97.673 7.566 3.215 9.364 7.102 2.997 6.353.225 13.828-6.143 16.818-6.368 2.99-13.934.225-16.856-6.129-1.873-3.887-1.499-8.223.524-11.661l-24.273-46.27c-8.316.523-13.859-6.803-13.859-6.803-3.821-10.689-.45-21.004-.45-21.004l3.521-1.645 5.919 15.324c4.944 2.691 9.664 1.719 9.664 1.719v.075s3.821-3.065 4.869-8.596l-7.941-14.352 3.521-1.645s10.114 4.037 15.808 13.904c0 0 2.172 8.895-3.596 14.95Zm24.198 57.632-5.769-4.037-6.443 2.99-.599 7.102 5.769 4.036 6.443-2.99.599-7.101Z" fill="url(#b)"/>
  <path d="m196.956 252.522 1.798 3.738 3.521-1.645-1.798-3.737-3.521 1.644ZM213.063 245.047l1.723 3.738 3.521-1.645-1.723-3.737-3.521 1.644ZM245.952 339.905l1.723 3.812 6.443-2.99-1.798-3.812-6.368 2.99Z" fill="#E5E2FF"/>
  <path fill-rule="evenodd" clip-rule="evenodd" d="m229.845 282.123 15.957 39.319s-2.772 3.887-7.941 3.663l-19.629-37.6s4.421-5.606 11.613-5.382Zm-.899.748c-1.649.199-3.272.672-4.87 1.42-2.098.972-3.746 2.243-4.72 3.065l19.628 36.851a11.022 11.022 0 0 0 2.772-.822c1.049-.523 1.948-1.121 2.473-1.644l-15.283-38.87Z" fill="url(#c)"/>
  <path d="m244.229 321.741 1.573-.299s-2.248 3.962-7.941 3.663l1.123-.897s2.847-.299 5.245-2.467Z" fill="#E5E2FF"/>
  <path style="mix-blend-mode:multiply" opacity=".6" d="m218.232 287.505 1.124-.149s3.371-3.439 9.59-4.485l.899-.748s-2.548-.448-6.443 1.421c-3.896 1.794-5.17 3.961-5.17 3.961Z" fill="url(#d)"/>
  <path style="mix-blend-mode:multiply" opacity=".6" d="M213.063 284.067s9.44-1.645 17.456-8.073l2.547 6.129s-2.922-2.84-9.215-.224c-7.417 2.99-7.042 8.97-7.042 8.97l-3.746-6.802Z" fill="url(#e)"/>
  <path style="mix-blend-mode:screen" opacity=".5" d="M233.066 282.123c-1.798-1.27-3.896-1.345-3.896-1.345l19.029 45.747 2.247-2.317-17.38-42.085Z" fill="url(#f)"/>
  <path d="M233.066 282.124s-1.948 6.129 3.746 9.044l-3.746-9.044Z" fill="#fff"/>
  <path d="M518.798 577.76h-70.422c-7.417-40.814-24.572-93.961-24.572-93.961-4.121-2.467-12.287.523-12.287.523l-25.696 93.438h-64.354c-3.446-57.632 28.169-123.113 28.169-123.113-.075-.225-1.124-2.243-.824-3.588.075-.524 1.199-1.645 2.397-2.766 1.723-1.57 3.821-3.14 3.821-3.14l120.017-.747s1.198.598 2.771 1.495c2.623 1.644 6.144 4.036 6.144 5.83 0 2.467-.974 4.112-1.199 4.485l-.075.075c25.771 48.438 36.11 121.469 36.11 121.469Z" fill="url(#g)"/>
  <path style="mix-blend-mode:screen" opacity=".5" d="M381.101 535.825c-8.615 37.226-27.345 64.734-41.804 61.445-14.458-3.364-19.178-36.254-10.563-73.48 8.616-37.3 27.27-64.808 41.729-61.444 14.459 3.289 19.178 36.179 10.638 73.479Z" fill="url(#h)"/>
  <path style="mix-blend-mode:screen" opacity=".5" d="M505.388 521.922c10.338 36.777 7.192 69.891-7.117 73.853-14.309 4.036-34.237-22.575-44.576-59.427-10.338-36.777-7.117-69.891 7.117-73.927 14.31-3.962 34.237 22.649 44.576 59.501Z" fill="url(#i)"/>
  <path d="m377.43 577.835-.674-.15c8.166-48.139 28.918-88.504 29.142-88.878l.075-.149 5.319-4.635.45.598-5.169 4.56c-.974 1.794-21.127 41.486-29.143 88.654Z" fill="url(#j)"/>
  <path d="M457.891 577.835c-8.016-47.168-28.693-87.234-29.592-89.028l-4.72-4.186.524-.598 4.795 4.411c.225.373 21.576 41.112 29.742 89.251l-.749.15Z" fill="url(#k)"/>
  <path style="mix-blend-mode:multiply" opacity=".8" d="M483.962 451.731c0 2.467-.974 4.112-1.199 4.485l-.075.075c-24.947 5.606-43.976 28.854-43.976 28.854 13.635 26.087 36.335 92.615 36.335 92.615h-26.671c-7.417-40.814-24.572-93.961-24.572-93.961-4.121-2.467-12.287.523-12.287.523l-25.696 93.438h-16.707c5.994-39.169 23.599-86.934 23.599-86.934-17.306-20.108-43.077-36.179-43.077-36.179l-3.072-1.869 2.248-1.719c11.088 10.689 47.048 24.592 48.096 25.041l-45.699-27.807c1.723-1.57 3.821-3.14 3.821-3.14l120.017-.747s1.198.598 2.771 1.495l-32.813 18.015 38.957-12.185Z" fill="url(#l)"/>
  <path style="mix-blend-mode:multiply" opacity=".8" d="m423.804 483.799 14.009-9.119-3.296 9.119-2.472 27.284-8.241-27.284Z" fill="url(#m)"/>
  <path style="mix-blend-mode:multiply" opacity=".8" d="m411.517 484.322-14.609-8.222-31.24-14.053 39.781 26.237 2.397 9.419 3.671-13.381Z" fill="url(#n)"/>
  <path d="M451.673 203.487c.075.672.149.971.149.971-.699 3.04-1.523 5.856-2.472 8.447-2.922 8.447-6.592 14.427-9.289 18.164-2.398 3.215-4.121 4.71-4.121 4.71-21.875-6.803-32.589-28.181-36.784-38.796v-.149c-.824-2.018-1.348-3.588-1.648-4.635-.3-.897-.375-1.345-.375-1.345.05-.2.125-.374.225-.523l.075-.075c.375-.748.674-1.495 1.049-2.243 2.847-6.279 4.72-12.109 5.993-16.744 1.049-3.887 1.648-6.877 1.873-8.521.15-.822.225-1.271.225-1.271l10.188 5.382 35.061 18.538c-.524 3.214-.674 6.204-.749 8.895 0 1.869.075 3.514.15 4.934.15 1.719.3 3.139.45 4.036v.225Z" fill="#FE9083"/>
  <path d="M441.933 238.171c-2.022 2.018-4.42 3.812-7.267 5.307-.05 0-.099.025-.149.075l-.225-.15c-.749-.448-3.371-2.018-6.893-4.709-9.139-6.877-24.497-20.781-28.842-39.543v-.075c-.525-2.242-.899-4.559-1.049-6.877-.05-.648-.1-1.27-.15-1.868 0 0 3.071 7.101 8.316 14.8 6.218 9.045 15.507 18.987 26.67 18.987 9.589.074 14.534-6.504 17.006-12.558 1.049-2.542 1.723-5.009 2.023-6.877.1-.549.2-1.022.299-1.421 0-.199.025-.398.075-.598.075-.672.075-1.046.075-1.046s3.746 22.948-9.889 36.553Z" fill="url(#o)"/>
  <path style="mix-blend-mode:multiply" opacity=".5" d="M441.933 238.171c-2.022 2.018-4.42 3.812-7.267 5.307h-.149l-.225-.075c-.749-.448-3.371-2.018-6.893-4.709-9.139-6.877-24.497-20.781-28.842-39.543v-.075c-.525-2.242-.899-4.559-1.049-6.877-.05-.648-.1-1.27-.15-1.868 0 0 3.071 7.101 8.316 14.8 0 0 6.068 16.595 19.178 24.817 6.518 4.111 11.537 3.513 15.208 1.121 3.596-2.392 5.994-6.652 7.417-9.792 1.349-3.214 1.798-6.129 1.873-8.372v-1.345c1.049-2.542 1.723-5.009 2.023-6.877.1-.549.2-1.022.299-1.421 0-.199.025-.398.075-.598.075-.672.075-1.046.075-1.046s3.746 22.948-9.889 36.553Z" fill="url(#p)"/>
  <path d="m526.065 373.767-.225.075c-1.199.149-5.019-.673-10.039-5.009l-.075-.074h-.075c-4.195-3.663-9.214-9.793-14.234-19.809-10.039-20.033-12.885-33.413-13.335-35.731l-.075-.373-5.843 9.269c-3.971 11.96-11.538 61.22-11.388 63.388.15 2.093 6.668 12.408 6.518 13.679v.075c-.15 1.27-3.146 4.111-3.971 7.176-.524 2.018 3.447 8.521 6.218 13.305v.075c1.499 2.467 2.623 4.56 2.623 5.307 0 2.243-7.118 13.306-7.118 13.306v5.98l-.149.074-.3.299-.3.225c-2.697 2.167-14.084 9.119-49.819 10.988-42.328 2.242-70.497-11.287-70.497-11.287l2.098-5.831s-1.948-1.719-2.098-2.541c-.15-.897 1.499-2.841 1.499-2.841s-4.196-2.242-4.196-5.083c0-2.84 8.466-11.661 8.241-19.136-.3-7.55-6.817-14.202-7.716-18.388-.824-4.261 11.087-14.726 11.087-14.726-10.188-32.292-12.211-75.647-12.211-75.647l-1.948-2.317s-12.211 27.807-23.299 41.411c-1.349 1.57-2.697 3.214-4.195 4.709a108.91 108.91 0 0 1-9.515 9.195c-7.641 6.652-14.609 11.063-16.407 10.689-2.846-.523-14.159-22.948-13.634-45.897.224-10.913 6.817-23.097 13.634-32.89a167.31 167.31 0 0 1 2.248-3.064c4.87-6.578 9.514-11.811 11.762-14.128.824-.972 1.348-1.42 1.348-1.42s-1.573-5.009-2.622-9.344a1.228 1.228 0 0 1-.075-.374c0-.05-.025-.099-.075-.149v-.075c-.599-2.691-1.048-5.008-.674-5.532.974-1.569 6.443-3.214 7.417-4.335.899-1.196 4.87-20.257 7.941-22.35 2.922-1.944 8.016-3.439 25.022-10.092a35.721 35.721 0 0 0 2.622-1.046c19.104-7.55 37.833-16.669 37.833-16.669l7.192-8.821h3.222l-1.049 2.243-.075.074a65.253 65.253 0 0 0 1.798 6.504v.149c9.889 31.171 35.361 41.187 35.361 41.187 17.68-13.006 17.305-33.712 17.305-33.712v-2.84l3.372.971 2.247 5.382s3.821 5.98 19.029 12.633c2.622 1.196 5.394 2.616 8.316 4.261 13.934 7.923 29.367 20.108 30.566 22.649.1.249.224.673.374 1.271v.075c1.648 6.353 5.02 30.348 8.166 38.87 1.948 5.382 5.02 8.297 7.267 9.792v.075c1.723 1.121 2.922 1.495 2.922 1.495.25 1.295.474 2.591.674 3.887 6.518 40.963-5.843 68.844-8.69 70.788Z" fill="url(#q)"/>
  <path style="mix-blend-mode:multiply" opacity=".5" d="m363.046 296.326-12.361 4.186-1.948-2.317s-12.211 27.807-23.299 41.411c-1.348 1.57-2.697 3.214-4.195 4.709a108.91 108.91 0 0 1-9.515 9.195l-9.364-40.44-4.795-30.722c4.87-6.578 9.514-11.811 11.762-14.128.824-.972 1.349-1.42 1.349-1.42s-1.574-5.009-2.623-9.344a.83.83 0 0 1-.074-.374c0-.05-.025-.1-.075-.149v-.075c-.6-2.691-1.049-5.008-.675-5.532.974-1.569 6.443-3.214 7.417-4.335.899-1.196 4.87-20.257 7.941-22.35 0 0-2.022 18.313 8.541 41.561l5.094 7.176 14.909 12.034s5.693 7.475 11.911 10.914Z" fill="url(#r)"/>
  <path d="M327.311 329.515c-2.622 19.585-31.989 34.684-31.989 34.684-6.518 0-13.785-11.287-20.453-25.265-6.592-13.979-7.042-54.119-7.342-56.661-.374-2.467-4.045-7.4-4.27-9.568-.225-2.093 5.919-6.503 5.919-6.503v-.075l-.075-.149c-.6-1.346-4.271-9.12-3.971-10.54.225-1.57 7.192-4.934 7.192-4.934l.45 7.625s16.107-3.065 21.576-15.548l.974-3.812 2.697 1.794v16.445s.599 2.541 1.423 2.541c.824 0 7.117-3.139 8.466-2.691 1.348.449 2.622 9.194 4.42 10.316 1.723 1.196 6.442 4.41 7.117 5.98.299.672.374 3.214.374 6.204.075 3.663.075 7.923.6 10.39 1.049 4.336 9.514 20.108 6.892 39.767Z" fill="url(#s)"/>
  <path d="M595.513 312.696c-1.349 2.018-7.942 6.429-9.665 8.073-1.723 1.719 0 7.326 0 7.326-27.794 29.451-56.861 44.177-59.783 45.672l-.225.075c-17.456-11.736-15.957-31.022-10.189-47.242 5.544-15.623 15.059-28.48 15.508-29.003.3-.15 5.319-2.243 8.915-2.467 1.124-.075 2.248.374 3.222.972 2.172 1.345 3.97 3.438 5.693 2.541 2.547-1.271 8.316-14.8 12.137-15.174 2.772-.224 6.517 2.541 8.99 4.111 1.123.673 1.948 1.121 2.397 1.047 1.424-.374 6.218-6.205 6.593-6.354.374-.15 2.622 1.495 2.622 1.495l-1.573 1.869c2.397 13.604 10.113 22.798 10.113 22.798l5.245-7.624s1.348 9.792 0 11.885Z" fill="url(#t)"/>
  <path d="M451.747 202.888c0 .2-.024.399-.074.598a5.23 5.23 0 0 1-.3 1.196c-1.798 6.653-8.99 13.381-18.055 10.092-9.964-3.514-28.843-43.505-28.843-43.505l1.873-8.521 44.875 36.478.524 3.438v.224Z" fill="#CB4D7A"/>
  <path d="M302.364 195.563s-2.772-15.1-1.574-26.238c1.274-11.137-.299-23.77-.299-23.77s-2.697-1.121-4.72 0c-1.948 1.121-6.593 12.633-4.495 21.902 2.098 9.269.45 31.469.45 31.469h-3.147l-6.817-9.343-3.297-.972s-19.028 17.94-18.729 28.629l2.472 9.493 23.449-.822 15.358-17.491 1.349-12.857Z" fill="#EE8183"/>
  <path d="M278.465 188.611s.525 11.885 3.222 22.051c0 0-.45 4.186-5.394 4.485l-1.199-1.345s-.824 4.784-5.169 5.083l-4.121-4.111 1.049 3.438s-1.498 3.588-5.394 3.439c0 0-6.518-5.083-6.967-11.736l6.518-5.457v-4.186l7.641-5.382.15-3.065s4.495-3.289 9.664-3.214Z" fill="url(#u)"/>
  <path style="mix-blend-mode:multiply" opacity=".6" d="M301.09 166.111s-1.124 2.916-2.772 4.112c-1.648 1.121-6.368 1.943-6.368 1.943l-.225 26.761h-3.146l-6.817-9.344s3.521 5.307 3.67 9.344l-2.697 1.27-2.322-7.998-1.124 5.756 1.124 7.176s4.046-3.439 11.387-3.588l1.049 1.943s-13.185 10.989-16.257 17.417c0 0 6.518-8.297 21.426-17.417l1.424-4.41 1.873-10.465s-1.798-15.099-.225-22.5Z" fill="url(#v)"/>
  <path d="M312.178 212.681c-1.199 3.662-14.085 18.986-15.508 22.275-1.423 3.289-2.322 7.625-2.322 7.625-6.293 13.679-21.576 15.548-21.576 15.548l-.75-12.334s-8.166-4.709-9.589-7.251v-.075l-.15-.448c-.449-2.392-.075-11.287-.075-11.287l14.384-5.831c6.218-8.073 21.426-17.417 21.426-17.417l.75-4.26c-10.938-5.308-9.14-21.528-7.267-23.547 1.873-1.943 5.244-1.943 5.244-1.943s3.97 13.006 6.518 19.136c2.547 6.055 10.113 16.146 8.915 19.809Z" fill="url(#w)"/>
  <path d="M268.801 191.825s1.573 14.875 6.293 21.977c0 0-5.993-7.401-6.443-18.912l.15-3.065ZM261.01 200.272s1.498 11.96 8.915 18.613c0 0-6.518-3.215-8.915-14.427v-4.186Z" fill="#E28183"/>
  <path style="mix-blend-mode:multiply" opacity=".9" d="M298.618 231.816s-16.182 15.698-26.596 13.979l.75 12.333s17.006-1.495 22.55-19.36c0 0 2.022-5.158 3.296-6.952Z" fill="url(#x)"/>
  <path d="M641.811 253.195s-14.908 27.209-32.364 35.507h-5.918l-13.785 20.855s-8.915-5.606-9.589-23.92c0 0 3.146-3.214 3.895-6.877 0 0-4.944-3.887-6.218-6.653-1.348-2.84-1.798-11.362-2.772-14.875-.974-3.513-8.99-10.764-10.788-11.661-1.798-.972-9.963-1.42-9.963-1.42s-1.124-2.99 0-4.336c1.198-1.42 13.859-6.354 20.751-1.644 0 0 .45 3.588 1.199 5.456.824 1.944 6.817 8.597 7.791 8.597.974 0 5.02-3.364 6.818-6.055 1.723-2.542 10.863-22.201 13.11-28.854 0-.05.025-.124.075-.224 0-.075.075-.149.075-.299 0-.05.025-.1.075-.149v-.075c1.723-5.756 11.612-16.819 16.931-19.809 0 0 2.248-.598 3.521 2.243 0 0-4.27 12.109-8.69 19.285a87.788 87.788 0 0 0-2.397 4.111h-.075c-3.746 6.952-8.016 16.072-8.616 17.417l-.075.15 2.323 1.196 6.443-6.055 6.517-6.204 15.059 15.847-1.499 1.943-4.645 5.98 2.323.449 5.544-6.13 4.944 6.204Z" fill="url(#y)"/>
  <path style="mix-blend-mode:multiply" opacity=".6" d="m638.365 258.951-4.795 7.027s-26.145-20.183-31.839-21.827c-5.694-1.72-7.717-.598-7.717-.598l-5.918 7.475s10.788 9.493 11.762 22.35c0 0-3.596-16.221-15.807-21.154.973 0 5.019-3.364 6.817-6.055 1.723-2.542 10.863-22.201 13.11-28.854-.299 1.122-.674 3.364.225 5.083 1.274 2.392 8.84.15 9.29 0h.075l-8.691 17.417-.075.15 2.323 1.196 6.443-6.055-3.222 7.475 23.299 4.111-4.644 5.98 2.322.449 7.042 5.83Z" fill="url(#z)"/>
  <path d="M620.085 228.902s4.57-.673 7.492 5.232l-.674 1.869s4.42.897 8.69 7.998c0 0-3.746 6.952-13.11 10.017 0 0-4.345-1.196-5.095-4.859l.825-2.392-3.372 2.541s-4.12 1.271-5.918-4.784l11.162-15.622Z" fill="url(#A)"/>
  <path d="M643.16 251.326s.974-4.335-3.671-7.176l-8.99 9.867s.299 3.215 4.195 3.887c0 0 6.143-2.093 8.466-6.578Z" fill="url(#B)"/>
  <path style="mix-blend-mode:multiply" opacity=".9" d="M577.832 272.107s10.414 11.586 25.697 16.594l-6.593 10.017-13.785-17.417.899-2.541s-5.469-4.112-6.218-6.653Z" fill="url(#C)"/>
  <path d="M626.903 236.003s-4.345 7.176-8.69 10.764l-.825 2.392s8.391-5.756 11.538-12.259c0 0-1.049-.748-2.023-.897Z" fill="#E28183"/>
  <path style="mix-blend-mode:multiply" opacity=".5" d="M595.513 312.696c-1.349 2.018-7.941 6.429-9.665 8.073-1.723 1.719 0 7.326 0 7.326-27.794 29.451-56.861 44.177-59.783 45.672l-.225.075c-2.247.299-13.335-2.841-24.423-24.892-10.038-20.033-12.885-33.413-13.335-35.731l-.075-.373 2.398-3.289 3.671-40.814 2.547 8.223c9.664-11.587 18.729-29.452 18.729-29.452l.374 1.271v.075c1.649 6.353 5.02 30.348 8.166 38.87 1.948 5.382 5.02 8.297 7.267 9.792v.075c-8.915 8.073-13.335 19.734-15.507 29.003-1.948 8.446-2.098 14.95-2.098 14.95s2.472-11.512 10.189-25.341c2.846-5.008 6.967-9.568 11.012-13.23 3.072-2.766 6.069-5.083 8.541-6.877 2.172 1.345 3.97 3.438 5.693 2.541-11.687 17.492-11.387 52.176-.449 45.598 11.013-6.653 13.485-20.631 13.485-20.631-2.547-17.118-1.798-36.404.3-40.066 2.547.074 9.739 5.157 10.188 5.083-.674 20.107 8.766 33.488 8.766 33.488l6.293-9.643c-9.14-15.249-8.466-30.199-8.466-30.199.375-.15 2.622 1.495 2.622 1.495l-1.573 1.869c2.397 13.604 10.114 22.798 10.114 22.798l5.244-7.624s1.348 9.792 0 11.885Z" fill="url(#D)"/>
  <path style="mix-blend-mode:multiply" opacity=".5" d="M475.046 438.426v5.98l-.149.075-.3.298-.3.225c-2.697 2.168-14.084 9.119-49.819 10.988-42.328 2.242-70.497-11.287-70.497-11.287l2.098-5.831s-1.948-1.719-2.098-2.541c-.15-.897 1.499-2.841 1.499-2.841s-4.196-2.242-4.196-5.083c0-2.616 6.893-10.016 8.016-16.968.15-.747.225-1.47.225-2.168-.3-7.475-6.817-14.127-7.716-18.388-.824-4.261 11.087-14.726 11.087-14.726-10.188-32.292-12.211-75.647-12.211-75.647l-1.948-2.317s-12.211 27.807-23.299 41.411c-11.088 13.605-27.27 25.191-30.117 24.593-6.517 0-13.784-11.287-20.452-25.265-6.593-13.979-7.042-54.119-7.342-56.661-.374-2.467-4.045-7.4-4.27-9.568 7.117 12.184 18.43 8.596 18.43 8.596-8.241.225-12.512-15.099-12.512-15.099v-.075l-.074-.149-3.971-10.54c.449.523 9.814 10.988 18.879 4.559 9.215-6.652 14.009-19.435 14.009-19.435v16.445s.6 2.542 1.424 2.542c-.525 7.55-2.173 16.819-4.121 25.863-4.195 19.66-9.964 38.572-9.964 38.572s15.658-8.447 21.127-29.975c2.622-10.316 3.072-19.286 2.847-25.789-.225-5.606-.974-9.418-1.274-10.764a1.223 1.223 0 0 1-.075-.374c0-.05-.025-.099-.075-.149v-.075l1.499 3.214 2.921 7.102c3.297 27.657-3.595 69.293-3.595 69.293 10.038-12.483 12.136-40.066 11.687-46.719-.15-3.214-.45-7.176-.6-10.39a803.073 803.073 0 0 1-.374-6.204l20.527 12.258-3.746-12.034 14.908 12.034s13.485 16.147 27.27 18.015c13.86 1.869 64.578.748 64.578.748s-44.126 2.84-57.011 6.578c-12.886 3.812-15.283 8.148-15.283 8.148 9.289 47.242 60.757 63.163 62.405 63.612-46.748-6.952-68.474-46.644-68.474-46.644s-.749 22.35 2.847 30.797c3.596 8.521 24.798 29.302 51.992 33.637 2.298.349 4.57.573 6.818.673 22.999 1.047 42.028-10.615 43.976-11.885l.15-.15-.075.075c-.674 1.121-10.114 14.352-48.172 15.847-2.297.05-4.545.025-6.742-.075h-.075c-35.211-1.42-53.191-24.892-53.191-24.892s-13.035 7.027-4.72 17.343c.1.149.175.274.225.373 2.472 2.841 7.866 6.279 14.309 9.792.15.15.325.25.525.3 7.716 4.26 16.781 8.671 23.823 12.333h.075c4.27 2.243 7.791 4.186 9.739 5.607h.075c1.948 1.42 2.323 2.392.45 2.616-9.889 1.121-47.123-7.027-48.696-4.709-1.499 2.242 1.873 8.073 1.873 8.073 34.237 16.968 107.43 8.596 109.753 8.372-61.282 15.622-111.401-4.187-111.401-4.187l1.648 5.831s27.269 9.418 59.484 10.241c32.139.747 52.216-7.475 52.216-7.475l3.521-5.98Z" fill="url(#E)"/>
  <path style="mix-blend-mode:multiply" opacity=".5" d="M449.949 303.95s24.348 1.346 40.455 5.606l-8.24 12.558s-12.511-10.988-32.215-18.164Z" fill="url(#F)"/>
  <path style="mix-blend-mode:multiply" opacity=".5" d="M472.724 371.001s-15.208 12.707-30.116 18.538c-14.984 5.83-29.368 6.428-29.368 6.428s8.616 2.542 29.742-.897c21.127-3.363 28.394-14.8 28.394-14.8l1.348-9.269Z" fill="url(#G)"/>
  <path style="mix-blend-mode:multiply" opacity=".5" d="M479.541 419.738v.075c-28.093 7.251-63.829-3.214-63.529-4.485.3-1.271 9.739.598 31.765-3.812 21.351-4.261 29.067-11.811 29.517-12.259-.15 1.271-3.147 4.111-3.971 7.176-.524 2.018 3.447 8.521 6.218 13.305Z" fill="url(#H)"/>
  <path style="mix-blend-mode:multiply" opacity=".5" d="M403.126 307.763c-24.048 2.466-30.491 9.119-30.491 9.119-6.742.897-21.95-16.37-21.95-16.37l-1.948-2.317s-12.211 27.807-23.299 41.411c-1.349 1.57-2.697 3.214-4.195 4.709l1.573-3.513s2.622-1.196 3.371-14.726c.749-13.455-5.694-33.637-5.768-36.328 0-2.766-.974-16.595-.974-16.595l20.527 12.259-3.746-12.034 14.908 12.034s5.919 8.746 20.677 16.072c13.935 6.951 29.592 6.353 31.315 6.279Z" fill="url(#I)"/>
  <path style="mix-blend-mode:multiply" opacity=".5" d="m348.737 298.194 14.309-1.868s5.694 3.812 17.156 8.446l-9.514 14.128s3.745 20.108 14.683 31.395c0 0-28.918-15.996-33.038-29.526l-3.596-22.575Z" fill="url(#J)"/>
  <path style="mix-blend-mode:multiply" opacity=".5" d="m265.13 255.438 4.046 10.764s4.195 14.501 12.511 15.099c8.241.673 16.332-24.294 16.332-24.294v-16.445s-8.766 18.838-18.28 21.005c-9.515 2.093-14.609-6.129-14.609-6.129Z" fill="url(#K)"/>
  <path style="mix-blend-mode:multiply" opacity=".5" d="M314.65 246.991s7.342 14.726 16.482 19.211c0 0-10.863-26.163-8.541-41.561 0 0-3.971 2.466-7.941 22.35Z" fill="url(#L)"/>
  <path style="mix-blend-mode:multiply" opacity=".8" d="m494.075 268.743 2.548 8.223 2.547 67.349s-6.518-12.782-11.088-31.096l2.322-3.662s4.046-25.415 3.671-40.814Z" fill="url(#M)"/>
  <path style="mix-blend-mode:multiply" opacity=".5" d="M572.513 288.626s-1.423 33.04 12.661 35.88l.674 3.588s-18.204-.672-13.335-39.468Z" fill="url(#N)"/>
  <path style="mix-blend-mode:multiply" opacity=".3" d="M548.989 298.643s-.524 1.196-5.693-2.541c0 0-17.681 12.558-24.498 30.199 0 0 10.863-16.221 16.706-17.94 5.844-1.794 7.192 4.709 7.192 4.709s2.323-9.12 6.293-14.427Z" fill="url(#O)"/>
  <path style="mix-blend-mode:multiply" opacity=".5" d="M263.257 272.705s6.818 12.558 19.553 8.671c0 0-7.641 5.083-15.283.897 0 0-4.794-8.148-4.27-9.568Z" fill="url(#P)"/>
  <path style="mix-blend-mode:multiply" opacity=".5" d="M307.908 256.858s9.364 34.983-15.059 61.295c0 0 15.883-8.148 19.479-26.985s-4.42-34.31-4.42-34.31Z" fill="url(#Q)"/>
  <path style="mix-blend-mode:multiply" opacity=".5" d="M475.946 228.901s-1.049 15.773-8.691 27.135c-7.566 11.287-22.625 18.986-22.625 18.986s18.879-6.952 27.57-16.744c8.69-9.792 3.746-29.377 3.746-29.377Z" fill="url(#R)"/>
  <path style="mix-blend-mode:multiply" opacity=".5" d="M379.378 205.131s0 13.231 4.27 26.686c4.196 13.455 41.205 36.926 41.205 36.926s-38.133-15.772-45.475-29.975c-7.417-14.202 0-33.637 0-33.637Z" fill="url(#S)"/>
  <path d="M378.928 267.996v21.528s49.595-.374 105.258 3.289l1.274-19.361s-48.396-5.755-106.532-5.456Z" fill="url(#T)"/>
  <path style="mix-blend-mode:multiply" opacity=".5" d="M457.441 207.971c-1.198 13.904-5.394 23.621-9.964 30.125-6.218 8.97-12.96 12.034-12.96 12.034-6.743-2.915-12.586-6.578-17.606-10.539-21.351-17.043-28.243-40.664-28.768-42.608 8.99 21.678 22.251 34.908 32.289 42.309 8.091 5.98 14.085 8.222 14.085 8.222v-6.952a48.219 48.219 0 0 1-4.645-2.018c-17.68-8.895-26.97-27.433-31.315-39.393v-.075c-2.398-6.503-3.297-11.063-3.297-11.063h3.222l-1.049 2.243-.075.074a65.524 65.524 0 0 0 1.798 6.504v.149c9.889 31.171 35.361 41.187 35.361 41.187 17.68-13.006 17.305-33.712 17.305-33.712v-2.84l3.372.971 2.247 5.382Z" fill="url(#U)"/>
  <path style="mix-blend-mode:multiply" opacity=".3" d="M562.325 283.543s-4.795 15.698-.3 40.066c0 0 2.322-30.871 3.971-33.562 1.723-2.691 6.517-1.421 6.517-1.421s-7.491-4.186-10.188-5.083Z" fill="url(#V)"/>
  <path style="mix-blend-mode:multiply" opacity=".5" d="M515.651 368.759c-4.195-3.663-9.214-9.793-14.234-19.809-10.039-20.033-12.885-33.413-13.335-35.731l2.322-3.662 3.222-30.797 2.997-1.794s10.638-11.736 18.729-29.452c.1.299.224.723.374 1.271v.075c1.648 6.353 5.02 30.348 8.166 38.87 1.948 5.382 5.02 8.297 7.267 9.792 0 0-18.429 27.358-19.328 46.793-.824 17.716 3.146 23.547 3.82 24.444Z" fill="url(#W)"/>
  <path style="mix-blend-mode:multiply" opacity=".5" d="M406.198 425.644s-33.263-5.457-46.823-14.128c-.05 0-.075-.025-.075-.075.15-.747.225-1.47.225-2.168-.3-7.475-6.817-14.127-7.716-18.388.149.448 1.123 2.691 5.843 6.727 2.997 2.542 7.492 5.831 14.309 9.792.15.15.325.25.525.3 9.589 5.681 17.83 9.493 23.823 12.333h.075c5.394 2.542 8.84 4.186 9.739 5.607h.075Z" fill="url(#X)"/>
  <path style="mix-blend-mode:multiply" opacity=".5" d="M477.294 399.257c-.15 1.271-3.146 4.111-3.971 7.176 0 0-12.211 12.857-57.311 8.895.3-1.271 9.739.598 31.765-3.812 21.351-4.261 29.068-11.811 29.517-12.259Z" fill="url(#Y)"/>
  <path d="m484.786 224.865-28.843 9.344-8.466 3.887v.075h-12.96l-4.645.373-2.472.15-6.968.598-3.521.299-34.611-12.558-6.218-2.168-28.469-10.315a35.744 35.744 0 0 0 2.622-1.047c19.104-7.55 37.833-16.669 37.833-16.669l7.192-8.821h3.222c2.847-6.279 4.719-12.109 5.993-16.744l1.873-8.521c.15-.822.225-1.271.225-1.271l10.188 5.382 34.312 27.433c0 1.869.075 3.514.15 4.934l.524 3.438c.075-.672.075-1.046.075-1.046l3.372.972 2.247 5.382s3.821 5.98 19.029 12.632c2.622 1.196 5.394 2.617 8.316 4.261Z" fill="#7A4AC0" style="mix-blend-mode:multiply" opacity=".5"/>
  <path d="M462.835 198.627s-13.485 2.99-28.318-4.186c-14.834-7.176-27.345-28.33-28.094-33.562-.749-5.308 5.694-19.136 5.694-29.9s-5.319-29.228 3.596-39.244c8.915-10.016 49.744-11.511 63.005 1.346 0 0 4.12 10.24 4.12 16.071 0 1.42-.225 3.438-.599 5.83-.15.897-.3 1.869-.45 2.841-1.199 7.026-2.847 15.622-2.098 19.36.3 1.345.75 2.541 1.199 3.663v.074c1.648 3.738 4.046 6.728 4.495 10.017.599 4.261-5.169 34.46-22.55 47.69Z" fill="url(#Z)"/>
  <path d="M411.967 127.989s-3.671-9.194-12.886-9.344c0 0-5.394 2.093-6.218 6.204 0 0 1.948 14.876 4.27 21.827 2.248 6.952 10.564 5.906 10.564 5.906s7.266-11.063 4.27-24.593Z" fill="url(#aa)"/>
  <path d="M447.477 158.262s3.072-.224 4.345.748c1.349.972 6.144 5.681 12.287 6.952 6.068 1.27 10.188-3.962 11.462-4.186 1.349-.299 2.772 1.569 2.772 1.569s-.599-2.167-3.746-3.064c0 0-1.273 4.858-10.114 3.214-8.84-1.719-12.661-5.606-12.661-5.606l-.449-.823s-2.472.524-3.896 1.196Z" fill="url(#ab)"/>
  <path style="mix-blend-mode:multiply" opacity=".6" d="m434.367 112.516.15-.972s8.84-15.399 26.296-15.847c17.455-.449 21.426 10.465 21.426 10.465l3.221-4.859-7.417-14.95-51.243-.822-12.511 10.016-1.573 24.593 5.544 32.516 13.485 7.176 3.821-3.363c-1.424-10.839-9.515-20.781-9.515-20.781l5.919-4.111s15.208 7.325 23.973 5.083c0 0 6.593-19.211 6.218-33.413 0 0-22.475 3.289-27.794 9.269Z" fill="url(#ac)"/>
  <path d="M433.618 113.637s.824-5.532 10.263-7.774c10.489-2.467 19.029-4.56 19.029-4.56s-1.873 6.055-5.394 8.372c0 0-11.088-.374-16.706.897-5.619 1.271-7.192 3.065-7.192 3.065ZM482.239 106.162s-5.394 4.111-8.99 13.904c0 0 3.521-4.56 6.667-4.485 2.173.074 1.873 2.242 1.873 2.242s2.173-5.83.45-11.661Z" fill="#38368E"/>
  <path d="M437.139 129.409s.599-11.735 12.061-14.725c0 0 4.121 5.307 4.57 11.287 0 0-6.143-1.121-16.631 3.438Z" fill="url(#ad)"/>
  <path d="M470.102 134.043s.899-9.343 6.293-12.782c0 0 3.671 2.766 3.296 10.54 0 0-3.221-1.121-9.589 2.242Z" fill="url(#ae)"/>
  <path d="M437.139 129.409s3.746 4.56 14.159 5.457c0 0 2.023-2.99 1.798-8.97 0 0-9.589-.897-15.957 3.513ZM470.102 134.044v1.42s1.573 3.364 7.342 3.887c0 0 1.873-2.915 2.023-7.55 0 0-3.671-.972-9.365 2.243Z" fill="#FFEBED"/>
  <path d="M448.301 125.672s-2.622 3.214-2.397 8.297c0 0 3.446.822 5.394.897 0 0 2.322-3.14 1.798-8.97 0 0-2.997-.598-4.795-.224ZM475.571 131.951s-1.498 1.569-1.798 6.503c0 0 2.023.897 3.671.897 0 0 2.098-2.99 2.023-7.55 0 0-1.499-.598-3.896.15Z" fill="#7F9EC9"/>
  <path d="M447.477 134.342s-.974-6.353 2.697-8.82l2.922.374s1.049 5.083-1.798 8.97c0 0-2.922-.299-3.821-.524ZM476.845 131.652s-1.349 2.84-1.948 7.25c0 0 1.049.374 2.547.449 0 0 2.023-2.467 2.023-7.55 0 0-1.574-.448-2.622-.149Z" fill="#38368E"/>
  <path d="M437.139 129.409s6.967-4.037 18.804-1.719l-2.173-1.72s-8.465-2.616-16.631 3.439ZM470.102 134.043s5.544-2.915 12.062-1.345l-2.697-2.018s-4.346-.673-9.365 3.363Z" fill="#131163"/>
  <path d="M444.63 129.409s1.948-.448 3.596 1.271c0 0-2.322.673-3.596-1.271ZM472.649 134.866s2.922-.598 3.971.822c0 0-1.573 1.046-3.971-.822Z" fill="#fff"/>
  <path d="M437.813 130.082s5.394 5.307 14.084 6.578l.225-3.139-.824 1.345s-8.316-.448-13.485-4.784ZM470.102 135.464s.899 3.438 7.941 5.008l-.225-1.719-.374.598s-5.02-.598-7.342-3.887Z" fill="#C6659C"/>
  <path d="M455.943 149.218s2.622-.523 7.417 0c4.869.598 10.263 1.869 13.26 0 0 0-3.971 3.962-7.342 4.56-3.446.598-8.615-2.392-8.615-2.392h-2.248s-1.798-.823-2.472-2.168Z" fill="#CB5F7D"/>
  <path d="M458.715 151.386s1.199-.748 2.172-.524c.974.15 2.023 1.57 2.023 1.57s-2.097-1.046-4.195-1.046Z" fill="#9F4A8B"/>
  <path d="M476.62 149.218c1.273-1.196-5.244-12.857-8.391-13.231-3.146-.448-6.068 13.007-6.068 13.007s4.345.598 8.54 1.121c4.196.598 5.919-.897 5.919-.897Z" fill="#FFBCAF"/>
  <path style="mix-blend-mode:multiply" opacity=".6" d="M481.265 112.665c-1.723-.224-8.016 7.4-8.016 7.4s-3.971 12.259-3.147 15.922c.749 3.588 10.414 5.531 10.414 5.531l.374-.597v-.075c-.449-1.121-.899-2.317-1.199-3.663-.749-3.737.899-12.334 2.098-19.36 0 0 .375-1.495.45-2.841 0-1.121-.15-2.167-.974-2.317Z" fill="url(#af)"/>
  <path fill-rule="evenodd" clip-rule="evenodd" d="M484.336 159.234c-.15 1.421-5.019 31.62-19.029 40.739v.075s-12.735 3.065-31.989-4.111c0 0-21.726-12.334-26.97-33.189 0 0-1.199-4.859 1.349-10.166 0 0 3.67-1.495 5.319-11.063 1.873-10.615-3.746-17.866-3.746-17.866s.749-5.755-.974-12.259c-1.648-6.578-4.87-12.857-3.446-17.491 1.423-4.635 13.26-7.55 18.654-11.96a17.518 17.518 0 0 0 2.397-2.243c.05 0 .1-.025.15-.074a23.54 23.54 0 0 0 1.798-2.243l.6-.673.599-.672c1.573-1.87 3.521-3.663 7.641-5.532 8.241-3.812 14.01-4.41 19.928-9.717l.075-.075s.3 5.382-1.648 10.016c0 0 18.13-4.036 22.4-4.036s5.694 13.53 5.694 13.53v.074c.299.374 5.394 7.176 7.192 11.886 1.048 2.541-7.792 20.332-7.792 20.332s1.049-8.447-4.345-16.221l-2.023 1.794-.224-.449c-.824-1.57-3.746-6.279-8.841-7.624 0 0 0 .972-16.032-.673-16.032-1.72-22.625-2.541-26.445 1.121-3.821 3.663-2.398 12.334 1.123 15.249 0 0-9.739 10.391-9.514 24.967.3 14.053 10.938 24.443 15.433 26.237.15.05.325.1.524.15 4.121 1.121 6.218-6.354 30.716-3.14 17.306 2.317 16.107 4.485 18.055 8.596.524 1.122 3.147-2.915 3.371-3.289Zm-4.869 9.195c.15-6.429-4.42-8.522-5.319-8.148-.824.374-3.372 1.644-10.489 1.196-7.042-.449-11.837-4.41-11.837-4.41s-9.139.971-11.761 8.297c-2.622 7.4 9.514 12.259 11.761 12.109 2.323-.224 7.942-6.652 7.942-6.652s6.218-.449 7.341.672c1.124 1.122 1.798 9.718 5.245 10.316 3.371.598 7.042-8.97 7.117-13.38Z" fill="url(#ag)"/>
  <path d="M471.451 138.529s6.143 7.624 5.543 10.465c-.674 3.139-7.716 4.784-7.716 4.784s5.694-1.944 6.817-4.784c0 0-1.423-5.756-4.644-10.465Z" fill="#D2726C"/>
  <path style="mix-blend-mode:multiply" opacity=".6" d="M482.538 112.516s1.049-8.447-4.345-16.221c4.27-7.774 4.945-16.071 4.945-16.071v.074c1.498 3.588 2.322 10.615 2.322 10.615l4.87 1.27c1.048 2.542-7.792 20.333-7.792 20.333Z" fill="url(#ah)"/>
  <path style="mix-blend-mode:multiply" opacity=".6" d="M475.946 97.64c-.824-1.57-3.746-6.279-8.841-7.624 0 0 0 .972-16.032-.673-16.032-1.72-22.625-2.541-26.445 1.121-3.821 3.663-2.398 12.334 1.123 15.249 0 0-9.739 10.391-9.514 24.967.3 14.053 10.938 24.443 15.433 26.237l-.225 1.495s.824 32.143 8.616 34.759c7.866 2.541 24.123 1.196 25.621 2.691 1.423 1.42-.225 3.887-.375 4.111v.075s-12.735 3.065-31.989-4.111c0 0-21.726-12.334-26.97-33.189 0 0-1.199-4.859 1.349-10.166 0 0 3.67-1.495 5.319-11.063 1.873-10.615-3.746-17.866-3.746-17.866s.749-5.755-.974-12.259c-1.648-6.578-4.87-12.857-3.446-17.491 9.065 1.42 14.983-3.29 14.983-3.29s1.648-2.242 8.616-3.363c7.042-1.121 35.285 1.72 35.285 1.72s-2.847-2.318-8.765-3.888c-5.619-1.495-24.872.225-26.97.374 2.247-.374 24.048-4.111 26.52-3.364 2.623.748 12.062 5.083 12.062 5.083-.824-4.335-9.29-14.725-9.29-14.725s-11.911.224-19.703 1.868c-6.967 1.42-10.788 4.635-11.537 5.308l1.798-2.243.6-.673.599-.672 2.697-.449 13.71-5.531c4.569-2.467 10.488-8.522 11.162-9.27l.075-.074s.3 5.382-1.648 10.016c11.537-1.42 15.433-.672 15.433-.672 5.244 7.4 5.469 27.582 5.469 27.582Z" fill="url(#ai)"/>
  <path style="mix-blend-mode:multiply" opacity=".5" d="M433.318 195.937s7.042-1.645 17.755-1.196c10.713.373 16.857.448 14.234 5.307 0 0-13.484 2.99-31.989-4.111Z" fill="url(#aj)"/>
  <path d="M470.477 70.058s6.517-2.542 9.065-2.093c0 0-.974-1.346-2.023-1.645-1.124-.299-22.475 4.41-22.475 4.41s13.335-1.495 15.433-.672Z" fill="url(#ak)"/>
  <path d="M457.291 72.45s-.524 7.1-2.772 9.642l-26.52 3.364-7.791-1.345s3.071-1.271 6.367-5.158c3.297-3.813 20.603-7.625 30.716-6.504Z" fill="url(#al)"/>
  <path d="M483.138 80.224s2.172 6.951 2.322 10.689l4.87 1.27s-1.499-5.307-7.192-11.96Z" fill="url(#am)"/>
  <path style="mix-blend-mode:multiply" opacity=".8" d="M410.918 140.472s-1.873-8.97-6.443-13.38c-4.57-4.41-9.814-2.99-9.814-2.99s1.423 16.594 2.922 20.631c1.498 4.036 3.745 5.083 3.745 5.083s-3.146-2.841-3.596-8.298c-.449-5.456-.524-13.156.675-14.127 1.198-.897 6.068 2.691 6.068 2.691s-1.573 1.869-2.472 6.727c-.899 4.934 2.472 8.447 3.746 8.372 1.273-.074-.075-5.606.149-7.25.225-1.57 3.072-1.271 5.02 2.541Z" fill="url(#an)"/>
  <path style="mix-blend-mode:multiply" opacity=".8" d="M406.348 129.334s-5.019 3.289-4.495 10.017c.599 6.727 4.42 6.428 4.42 5.008s-.749-5.083-.299-7.101c.374-2.018 3.67-1.121 3.67-1.121s-2.172-5.308-3.296-6.803Z" fill="url(#ao)"/>
  <path d="M484.336 159.234s-6.143 28.181-19.029 40.814c0 0 14.684-5.756 19.029-40.814ZM477.519 66.32s3.221 2.542 3.821 11.362c.674 8.82-3.147 18.613-3.147 18.613s4.87-7.325 5.394-15.398c.45-7.999-3.521-13.605-6.068-14.577Z" fill="#34C7FF"/>
  <path d="M437.888 84.784s7.567 2.54 15.882 3.288c8.241.748 9.964.897 9.964.897s-3.296-3.214-10.413-4.185c-7.117-.972-15.433 0-15.433 0Z" fill="url(#ap)"/>
  <path d="M474.447 159.832s3.596 0 5.02 4.56c1.123 3.588 1.498 6.728 1.498 6.728l1.274-5.009s-1.724-6.279-3.447-7.699c-1.273-.972-3.371-2.018-4.42-1.794l.075 3.214Z" fill="url(#aq)"/>
  <path d="m464.708 155.347.599 5.382s4.42.299 7.342-.897l.525-3.214s-5.619-1.42-8.466-1.271Z" fill="url(#ar)"/>
  <path d="M484.786 224.865s25.846 18.837 29.142 25.265c3.371 6.504 4.72 26.761 9.29 35.581 0 0-3.147-14.352-5.319-25.639-2.173-11.287-1.648-11.437-2.847-14.202-1.199-2.766-20.452-16.072-30.266-21.005ZM480.141 329.59s-12.436 53.147-11.837 56.735c.6 3.588 8.616 10.914 8.99 12.932 0 0-6.143 8.222-5.843 10.016.224 1.869 10.788 13.381 10.488 16.894-.075 1.046-6.892 12.259-6.892 12.259s7.716-10.988 8.091-12.782c.374-1.72-9.44-16.445-9.739-17.94-.75-3.887 4.869-6.728 5.094-9.269.15-2.542-7.642-8.821-7.717-12.932-.074-4.186 9.365-55.913 9.365-55.913ZM482.688 456.291s26.895 60.697 36.11 121.469c0 0-1.573-59.277-36.11-121.469Z" fill="#34C7FF"/>
  <path d="M312.178 212.681s-6.968-1.495-9.814-7.55c-2.922-6.055-1.049-14.8-1.049-14.8s5.469 10.39 8.166 13.978c2.697 3.588 3.446 7.624 2.697 8.372Z" fill="#FFBCAF"/>
  <path opacity=".6" d="m526.889 180.987 4.87 137.241c.149 5.457 4.644 9.792 10.113 9.792h236.887c5.544 0 10.039-4.41 10.189-9.867l3.296-138.885c.15-5.681-4.495-10.391-10.189-10.316l-245.127 1.57c-5.694.075-10.264 4.784-10.039 10.465Z" fill="#36D1F7"/>
  <path fill-rule="evenodd" clip-rule="evenodd" d="M778.759 328.394H541.872c-5.693 0-10.338-4.485-10.488-10.166l-4.87-137.241c-.074-2.841.974-5.532 2.922-7.625a10.892 10.892 0 0 1 7.492-3.214l245.127-1.57c2.847 0 5.544 1.047 7.567 3.14 2.023 2.018 3.071 4.709 2.996 7.549l-3.296 138.886c-.15 5.756-4.795 10.241-10.563 10.241Zm3.371-159.068h-.075l-245.052 1.569c-2.697.075-5.169 1.122-7.042 2.99-1.798 1.944-2.772 4.485-2.697 7.102l4.869 137.241c.15 5.307 4.42 9.418 9.739 9.418h236.887c5.319 0 9.664-4.261 9.814-9.493l3.296-138.886c.075-2.616-.899-5.157-2.772-7.026-1.872-1.869-4.345-2.915-6.967-2.915Z" fill="#744CA2"/>
  <path style="mix-blend-mode:multiply" opacity=".6" d="M527.264 188.013h264.68l.45-7.251c.374-6.428-4.795-11.81-11.163-11.735l-244.977 1.943c-5.17 0-9.215 4.261-9.14 9.344l.15 7.699Z" fill="url(#as)"/>
  <path style="mix-blend-mode:multiply" opacity=".3" d="M540.599 199.076v79.384h80.985v-79.833l-80.985.449Z" fill="url(#at)"/>
  <path style="mix-blend-mode:multiply" opacity=".3" d="M735.157 239.591h-35.285v-35.208h35.285v35.208Z" fill="url(#au)"/>
  <path style="mix-blend-mode:multiply" opacity=".3" d="M776.736 239.591H741.45v-35.208h35.286v35.208Z" fill="url(#av)"/>
  <path style="mix-blend-mode:multiply" opacity=".3" d="M692.829 239.591h-35.21v-35.208h35.21v35.208Z" fill="url(#aw)"/>
  <path d="M776.736 268.519h-90.125v-8.447h90.125v8.447ZM776.736 275.471H664.062v-2.617h112.674v2.617ZM686.686 246.692H665.11v-2.616h21.576v2.616ZM728.265 246.692h-21.501v-2.616h21.501v2.616ZM769.844 246.692h-21.501v-2.616h21.501v2.616ZM693.878 279.731h-36.259v-2.616h36.259v2.616ZM776.736 283.918H664.062v-2.617h112.674v2.617ZM776.736 288.104H657.619v-2.617h119.117v2.617ZM776.736 292.29H657.619v-2.617h119.117v2.617ZM776.736 309.258H664.062v-2.616h112.674v2.616ZM776.736 313.443H657.619v-2.616h119.117v2.616ZM776.736 317.629H657.619v-2.616h119.117v2.616ZM771.942 296.475H657.619v-2.616h114.323v2.616ZM776.736 300.661H664.062v-2.616h112.674v2.616ZM754.111 304.847h-96.492v-2.616h96.492v2.616Z" fill="#D1D4FB" style="mix-blend-mode:multiply"/>
  <path fill-rule="evenodd" clip-rule="evenodd" d="M563.298 262.539c-12.735 0-23.074-10.316-23.074-22.949 0-12.707 10.339-23.023 23.074-23.023 12.661 0 23 10.316 23 23.023 0 12.633-10.339 22.949-23 22.949Zm0-44.477c-11.911 0-21.576 9.643-21.576 21.528 0 11.811 9.665 21.454 21.576 21.454 11.837 0 21.502-9.643 21.502-21.454 0-11.885-9.665-21.528-21.502-21.528Z" fill="#E0FFFF" style="mix-blend-mode:soft-light"/>
  <path d="M575.81 239.591c0 6.877-5.619 12.483-12.511 12.483-6.968 0-12.586-5.606-12.586-12.483 0-6.952 5.618-12.558 12.586-12.558 6.892 0 12.511 5.606 12.511 12.558Z" fill="#fff"/>
  <path fill-rule="evenodd" clip-rule="evenodd" d="M621.584 221.65c-12.736 0-23.074-10.315-23.074-23.023 0-12.632 10.338-22.948 23.074-22.948 12.736 0 23.074 10.316 23.074 22.948 0 12.708-10.338 23.023-23.074 23.023Zm0-44.476c-11.912 0-21.576 9.643-21.576 21.453 0 11.886 9.664 21.528 21.576 21.528s21.576-9.642 21.576-21.528c0-11.81-9.664-21.453-21.576-21.453Z" fill="#E0FFFF" style="mix-blend-mode:soft-light"/>
  <path d="M633.346 198.628c0 6.503-5.245 11.81-11.762 11.81-6.518 0-11.762-5.307-11.762-11.81s5.244-11.736 11.762-11.736c6.517 0 11.762 5.233 11.762 11.736Z" fill="#fff"/>
  <g style="mix-blend-mode:soft-light" fill="#fff">
    <path d="m536.553 177.249 1.649-2.541 9.139 7.923-1.423 1.944-9.365-7.326Z"/>
    <path d="m547.566 177.249-1.723-2.541-9.065 7.923 1.349 1.944 9.439-7.326Z"/>
  </g>
  <path d="M785.576 180.463h-81.584v-4.036h81.584v4.036Z" fill="#fff"/>
  <path d="M274.719 117.449v35.357l42.328.374.6-36.852-42.928 1.121Z" fill="url(#ax)"/>
  <path d="m317.647 116.328 2.772 4.635-1.424 32.142-1.948.075.6-36.852Z" fill="url(#ay)"/>
  <path d="m282.286 129.41 3.896-5.681 21.126 17.715-3.221 4.336-21.801-16.37Z" fill="#fff"/>
  <path d="m307.908 129.41-3.971-5.681-21.126 17.715 3.221 4.336 21.876-16.37Z" fill="#fff"/>
  <path opacity=".8" d="M373.46 533.209H228.646c-6.443 0-11.762-5.158-11.912-11.586l-2.697-118.554c-.15-6.653 5.244-12.11 11.912-12.11h150.807c6.668 0 12.062 5.457 11.837 12.11l-3.221 118.628c-.225 6.354-5.469 11.512-11.912 11.512Z" fill="url(#az)"/>
  <path fill-rule="evenodd" clip-rule="evenodd" d="M373.46 533.583H228.646c-6.593 0-12.137-5.382-12.286-11.96l-2.697-118.554c-.075-3.289 1.198-6.428 3.521-8.82 2.322-2.392 5.394-3.663 8.765-3.663h150.807c3.296 0 6.443 1.271 8.765 3.663 2.323 2.392 3.521 5.531 3.447 8.895l-3.222 118.553c-.225 6.653-5.544 11.886-12.286 11.886Zm-147.511-142.25c-3.147 0-6.068 1.196-8.241 3.439-2.173 2.242-3.371 5.158-3.296 8.297l2.697 118.554c.15 6.129 5.319 11.212 11.537 11.212H373.46c6.293 0 11.312-4.933 11.537-11.212l3.221-118.554c.075-3.065-1.048-6.055-3.221-8.297-2.173-2.243-5.094-3.439-8.241-3.439H225.949Z" fill="#473DA2"/>
  <path d="M329.259 418.468h-76.19v-3.289h76.19v3.289ZM291.201 426.391h-38.132v-3.289h38.132v3.289ZM291.201 432.969h-38.132v-3.214h38.132v3.214ZM325.813 432.969h-30.342v-3.214h30.342v3.214ZM314.5 439.547h-61.431v-3.214H314.5v3.214ZM274.944 446.2h-21.875v-3.289h21.875v3.289ZM317.272 466.009h-37.833v-3.215h37.833v3.215ZM321.617 452.778h-68.548v-3.215h68.548v3.215ZM305.81 459.431h-52.741v-3.289h52.741v3.289ZM277.866 466.009h-24.797v-3.215h24.797v3.215ZM291.201 472.662h-38.132v-3.289h38.132v3.289ZM264.006 479.24h-10.937v-3.289h10.937v3.289ZM308.207 479.24h-39.706v-3.289h39.706v3.289ZM317.272 485.668h-37.833v-3.289h37.833v3.289ZM277.866 485.668h-24.797v-3.289h24.797v3.289ZM291.201 492.246h-38.132v-3.214h38.132v3.214ZM264.006 498.899h-10.937v-3.289h10.937v3.289ZM308.207 498.899h-39.706v-3.289h39.706v3.289Z" fill="#fff"/>
  <path d="M762.202 142.491c0 3.662-2.996 6.652-6.667 6.652s-6.668-2.99-6.668-6.652c0-3.738 2.997-6.728 6.668-6.728 3.671 0 6.667 2.99 6.667 6.728Z" fill="url(#aA)"/>
  <path d="M134.55 297.447c0 4.56-3.67 8.297-8.315 8.297-4.57 0-8.316-3.737-8.316-8.297 0-4.634 3.746-8.372 8.316-8.372 4.645 0 8.315 3.738 8.315 8.372Z" fill="url(#aB)"/>
  <path d="M781.905 142.491c0 3.662-2.996 6.652-6.742 6.652-3.671 0-6.668-2.99-6.668-6.652 0-3.738 2.997-6.728 6.668-6.728a6.707 6.707 0 0 1 6.742 6.728Z" fill="url(#aC)"/>
  <path d="M348.138 188.387c0 2.616-2.098 4.784-4.72 4.784s-4.72-2.168-4.72-4.784a4.695 4.695 0 0 1 4.72-4.709 4.695 4.695 0 0 1 4.72 4.709Z" fill="url(#aD)"/>
  <path d="M665.26 396.865a4.694 4.694 0 0 1-4.719 4.709 4.694 4.694 0 0 1-4.72-4.709 4.694 4.694 0 0 1 4.72-4.709 4.694 4.694 0 0 1 4.719 4.709Z" fill="url(#aE)"/>
  <path d="M172.533 443.957c0 2.318-1.873 4.261-4.195 4.261-2.323 0-4.27-1.943-4.27-4.261 0-2.317 1.947-4.186 4.27-4.186a4.184 4.184 0 0 1 4.195 4.186Z" fill="url(#aF)"/>
  <path opacity=".7" d="M240.483 402.471h-73.119c-5.919 0-10.713-4.635-10.938-10.465l-1.573-47.99c-.225-6.204 4.72-11.287 10.863-11.287h76.19c6.218 0 11.163 5.083 10.938 11.213l-1.498 47.989c-.15 5.905-4.945 10.54-10.863 10.54Z" fill="url(#aG)"/>
  <path fill-rule="evenodd" clip-rule="evenodd" d="M240.483 402.845h-73.119c-6.143 0-11.088-4.784-11.312-10.839l-1.574-47.99c-.149-3.064.974-5.98 3.147-8.222 2.172-2.243 5.019-3.439 8.091-3.439h76.265c3.072 0 5.918 1.196 8.091 3.439 2.098 2.168 3.221 5.083 3.147 8.148l-1.499 47.989c-.15 6.13-5.094 10.914-11.237 10.914Zm-74.767-69.742a10.44 10.44 0 0 0-7.567 3.214c-2.022 2.093-3.071 4.784-2.921 7.699l1.573 47.915c.225 5.756 4.869 10.166 10.563 10.166h73.119c5.693 0 10.338-4.41 10.488-10.166l1.498-47.989c.075-2.841-.974-5.607-2.996-7.625-1.948-2.093-4.645-3.214-7.492-3.214h-76.265Z" fill="#953DA2"/>
  <path d="m186.842 349.997-18.055 20.855 18.43 15.548v-8.073l-10.638-9.12 9.814-11.137.449-8.073ZM218.532 350.894l18.055 20.855-18.355 15.548v-7.998l10.564-9.195-11.762-12.483 1.498-6.727ZM190.813 386.4l15.658-34.535h7.416l-17.83 34.535h-5.244Z" fill="#fff"/>
  <path opacity=".7" d="M732.385 501.216h-91.473c-7.342 0-13.335-5.756-13.635-13.156l-2.022-60.025c-.225-7.699 5.918-14.053 13.634-14.053h95.369c7.717 0 13.86 6.354 13.635 14.053l-1.798 60.025c-.225 7.325-6.293 13.156-13.71 13.156Z" fill="url(#aH)"/>
  <path fill-rule="evenodd" clip-rule="evenodd" d="M732.385 501.59h-91.473a13.967 13.967 0 0 1-14.009-13.455l-2.023-60.099c-.075-3.813 1.274-7.401 3.971-10.166 2.622-2.766 6.218-4.261 10.038-4.261h95.369c3.821 0 7.417 1.495 10.039 4.261a13.549 13.549 0 0 1 3.971 10.166l-1.798 60.024c-.3 7.624-6.443 13.53-14.085 13.53Zm-93.496-87.234c-3.596 0-6.967 1.421-9.514 4.037-2.547 2.616-3.821 6.055-3.746 9.643l2.023 60.024c.3 7.176 6.068 12.782 13.26 12.782h91.473c7.267 0 13.111-5.606 13.336-12.782l1.798-60.024c.149-3.663-1.199-7.102-3.746-9.643-2.473-2.616-5.919-4.037-9.515-4.037h-95.369Z" fill="#953DA2"/>
  <path d="M727.366 473.26h-83.757v-49.635h83.757v49.635Z" fill="#D1D4FB" style="mix-blend-mode:multiply"/>
  <path d="M678.071 435.959V461l21.426-13.679-21.426-11.362Z" fill="#fff"/>
  <path d="M727.366 486.939h-83.757v-4.485h83.757v4.485Z" fill="#D1D4FB" style="mix-blend-mode:multiply"/>
  <path d="M665.26 482.454v4.485h-21.651v-4.485h21.651Z" fill="#fff"/>
  <path fill-rule="evenodd" clip-rule="evenodd" d="M589.669 432.745a39.398 39.398 0 0 1-3.521 4.784l2.098 5.83-8.84 6.653-.899-6.578c-1.798.822-3.671 1.271-5.394 1.271l-.899 2.99-1.199 4.41-7.866-3.065 2.997-6.951c-1.349-1.122-2.473-2.617-3.372-4.411l-4.944 4.635-2.323-10.988 5.17-3.215a34.047 34.047 0 0 1 .599-7.624l-4.87-.822 4.57-12.484 4.27 2.392c1.274-2.317 2.698-4.41 4.271-6.204l-2.023-5.905 8.84-6.653.899 6.653c1.798-.822 3.596-1.271 5.394-1.271l1.948-7.026 8.016 2.616-3.071 6.952c.299.249.599.523.898.822a13.51 13.51 0 0 1 2.473 3.663l4.944-4.71 2.323 10.989-5.095 3.214c.075 2.018-.075 4.111-.449 6.279-.05.448-.125.897-.225 1.345l4.945.823-4.57 12.483-4.271-2.392c-.299.498-.574.996-.824 1.495Zm-11.837-12.334 4.421-12.483c1.498 1.121-1.948 5.606-4.421 12.483Zm-4.345 12.483c1.124-.299 1.948-5.531 4.345-12.408l-4.345 12.408Z" fill="url(#aI)"/>
  <path fill-rule="evenodd" clip-rule="evenodd" d="m589.669 432.745-6.892 4.186 5.469 6.428-8.84 6.653-7.192-2.317-4.121-1.346 1.124 2.168 1.798 3.588-11.312-3.663-7.867-3.065 2.548-5.83-7.867-.897 4.121-14.801 8.241-22.798-2.697-7.251 8.84-6.653 6.892 3.289 1.423-5.382 7.942 3.065 3.296 1.046 8.016 2.617-2.173 4.335 7.417 2.392 1.723 10.689-5.169 2.542-.524 6.877.749.374 4.72 2.167-4.57 12.484-5.095-.897Zm-3.146-37.899 2.098 5.009 1.797-3.738-3.895-1.271Zm-13.036 38.123 4.345-12.483 4.421-12.484c-4.42-1.569-9.964 2.766-12.362 9.718-2.397 6.877-.824 13.679 3.596 15.249Z" fill="url(#aJ)"/>
  <path fill-rule="evenodd" clip-rule="evenodd" d="M579.181 427.587c-1.274 2.317-2.697 4.41-4.345 6.279l2.097 5.83-8.84 6.653-.899-6.578c-1.798.822-3.596 1.196-5.394 1.271l-2.097 7.4-7.867-3.065 2.997-6.951c-1.349-1.122-2.472-2.691-3.371-4.485l-4.945 4.709-2.322-10.988 5.169-3.215c-.075-2.392.15-5.008.674-7.624l-4.944-.822 4.57-12.484 4.27 2.392c1.274-2.317 2.697-4.41 4.27-6.204l-2.023-5.905 8.841-6.653.899 6.578c1.798-.747 3.596-1.196 5.394-1.196l2.022-7.475 7.942 3.065-3.072 6.952c1.423 1.121 2.547 2.691 3.371 4.485l4.945-4.71 2.397 10.989-5.169 3.214c.075 2.392-.15 5.008-.674 7.624l4.944.823-4.57 12.483-4.27-2.392Zm-4.72-8.073c2.397-6.877.824-13.679-3.521-15.249-4.42-1.495-9.964 2.84-12.361 9.717-2.398 6.877-.824 13.68 3.596 15.249 4.345 1.57 9.889-2.84 12.286-9.717Z" fill="url(#aK)"/>
  <path d="m600.157 409.497-11.237-3.663-5.169 3.215 11.312 3.662 5.094-3.214Z" fill="#601734" style="mix-blend-mode:multiply" opacity=".5"/>
  <path d="m588.246 443.359-11.313-3.663-2.097-5.83 11.312 3.662 2.098 5.831Z" fill="#B3D9FF" style="mix-blend-mode:soft-light"/>
  <path d="m578.207 395.071 6.218 1.794 2.098-2.018 4.12 1.345 1.948-4.41-11.312-3.663-3.072 6.952ZM561.8 441.042l5.919 2.392-.525-3.663s-3.146 1.644-5.394 1.271ZM562.699 407.18l9.964 5.232s1.424-1.868 2.547-2.69c0 0-2.622-10.989-12.511-2.542Z" fill="#601734" style="mix-blend-mode:multiply" opacity=".5"/>
  <path d="m333.829 35 9.589 19.21-6.443 2.916-8.99-17.641L333.829 35Z" fill="#FF1D9C"/>
  <path d="m117.395 482.528 8.915 9.718 3.446-3.962-8.391-9.269-3.97 3.513Z" fill="#6877FF"/>
  <path d="m569.517 152.208-8.915 5.457-3.596-6.802 9.814-5.681 2.697 7.026ZM613.643 495.684l-12.811 9.045-3.596-6.728 12.436-7.325 3.971 5.008Z" fill="#4F31E0"/>
  <path d="m596.711 105.788-2.172-50.307h66.001l-2.697 50.158-61.132.149Z" fill="url(#aL)"/>
  <path d="m594.539 55.481-2.023 2.916 2.023 47.391h2.172l-2.172-50.307Z" fill="url(#aM)"/>
  <path d="m616.414 65.498-10.338-1.122 1.423 34.535 8.915-.897v-3.588l-5.169.15-.599-26.611 5.768.149v-2.616ZM637.691 65.498l10.338-1.122-1.423 34.535-8.915-.897v-3.588l5.169.15.6-26.611-5.769.149v-2.616Z" fill="#fff"/>
  <path d="m170.527 148.07 1.498-34.31H127l1.873 34.161 41.654.149Z" fill="url(#aN)"/>
  <path d="m172.025 113.76 1.348 2.018-1.348 32.292h-1.498l1.498-34.31Z" fill="url(#aO)"/>
  <path d="M154.644 120.637s4.945-.15 5.844.224c.824.374-.225 8.447-.225 8.447l1.948 1.794-1.798 1.719s.075 8.148-1.124 8.821c-1.124.672-5.094 0-5.094 0v-2.019s3.221.225 3.746-.224c.524-.448.524-7.55.524-7.55l.824-.897-.824-1.046s.15-5.083.075-6.503c-.075-.897-3.896-.972-3.896-.972v-1.794ZM143.332 120.637s-4.87-.15-5.769.224.225 8.447.225 8.447l-1.948 1.794 1.798 1.719s-.075 8.148 1.049 8.821c1.199.672 5.169 0 5.169 0v-2.019s-3.221.225-3.745-.224c-.6-.448-.525-7.55-.525-7.55l-.899-.897.899-1.046s-.15-5.083-.075-6.503c.075-.897 3.821-.972 3.821-.972v-1.794Z" fill="#fff"/>
  <path fill-rule="evenodd" clip-rule="evenodd" d="m521.196 110.348-11.013-28.853 28.618 5.98-17.605 22.873Zm-9.889-27.807 10.113 26.312 16.033-20.855-26.146-5.457Z" fill="#744CA2"/>
  <path d="m600.233 518.707-.6-.448 9.739-13.156.6.448-9.739 13.156ZM509.284 397.089l-10.414-12.932.6-.449 10.413 12.932-.599.449ZM188.191 487.91l-20.827-15.099.45-.598 20.827 15.099-.45.598Z" fill="#744CA2"/>
  <path d="m170.511 490.452-.6-.449 15.583-20.332.599.449-15.582 20.332ZM154.628 267.323l-13.41-7.027.3-.672 13.485 7.101-.375.598ZM671.329 86.428l-.525-.449 15.508-17.715.524.523-15.507 17.64ZM375.782 143.462l-6.967-13.903.674-.299 6.893 13.903-.6.299ZM259.362 379.149l-.45-.523 17.831-14.95.449.598-17.83 14.875Z" fill="#744CA2"/>
  <path d="M402.865 274.459c2.534.062 4.72 1.684 4.639 5.015-.082 3.331-2.346 4.844-4.879 4.782l-7.11-.174.24-9.797 7.11.174Zm-1.14 7.66c1.904.047 3.201-.327 3.259-2.706.059-2.38-1.219-2.817-3.122-2.864l-3.639-.089-.137 5.57 3.639.089Zm12.112.606c1.652.04 2.667-.243 3.29-1.068l2.379.058c-.597 2.086-2.665 3.03-5.716 2.955-3.135-.077-5.54-1.368-5.466-4.391.074-3.037 2.47-4.211 5.815-4.129 3.135.077 5.614 1.216 5.522 4.967l-8.902-.218c.234 1.322 1.483 1.787 3.078 1.826Zm.243-4.756c-1.637-.04-2.793.254-3.199 1.406l6.256.154c-.378-1.172-1.545-1.523-3.057-1.56Zm14.295-1.33 2.659.066-4.387 8.14-3.415-.083-3.968-8.346 2.659.065 3.072 6.629 3.38-6.471Zm7.645 6.63c1.652.04 2.667-.243 3.289-1.068l2.38.059c-.598 2.085-2.665 3.029-5.716 2.954-3.136-.077-5.541-1.368-5.466-4.391.074-3.037 2.47-4.211 5.815-4.129 3.135.077 5.613 1.216 5.521 4.967l-8.901-.218c.234 1.322 1.483 1.787 3.078 1.826Zm.243-4.756c-1.638-.04-2.793.254-3.2 1.406l6.257.154c-.378-1.172-1.546-1.523-3.057-1.56Zm6.681-4.471 2.393.059-.275 11.196-2.393-.059.275-11.196Zm8.736 11.558c-3.415-.084-5.68-1.372-5.606-4.395.075-3.037 2.4-4.213 5.815-4.129 3.401.084 5.68 1.372 5.606 4.409-.074 3.023-2.414 4.198-5.815 4.115Zm.049-2.002c2.211.054 3.317-.465 3.358-2.172.043-1.722-1.036-2.294-3.247-2.349-2.225-.054-3.33.465-3.373 2.186-.041 1.708 1.037 2.281 3.262 2.335Zm13.29-6.2c2.659.065 4.885 1.24 4.807 4.389-.077 3.149-2.357 4.2-5.017 4.135-1.777-.044-3.193-.555-4.066-1.515l-.117 4.773-2.407-.059.288-11.743 2.407.06-.031 1.273c.918-.902 2.358-1.356 4.136-1.313Zm-.958 6.503c2.141.052 3.332-.549 3.372-2.172.04-1.638-1.12-2.296-3.261-2.349-2.142-.053-3.319.549-3.359 2.186-.04 1.624 1.106 2.282 3.248 2.335Z" fill="#fff"/>
  <defs>
    <linearGradient id="a" x1="145.039" y1="345.586" x2="145.039" y2="243.403" gradientUnits="userSpaceOnUse">
      <stop stop-color="#DBCCFF"/>
      <stop offset="1" stop-color="#D1BBFF"/>
    </linearGradient>
    <linearGradient id="b" x1="146.837" y1="349.323" x2="146.837" y2="247.14" gradientUnits="userSpaceOnUse">
      <stop stop-color="#B5A6E7"/>
      <stop offset="1" stop-color="#7760BF"/>
    </linearGradient>
    <linearGradient id="c" x1="198.23" y1="325.105" x2="198.23" y2="282.123" gradientUnits="userSpaceOnUse">
      <stop stop-color="#B5A6E7"/>
      <stop offset="1" stop-color="#7760BF"/>
    </linearGradient>
    <linearGradient id="d" x1="217.633" y1="286.235" x2="229.161" y2="280.833" gradientUnits="userSpaceOnUse">
      <stop stop-color="#8B8BE0"/>
      <stop offset="1" stop-color="#A177B7"/>
    </linearGradient>
    <linearGradient id="e" x1="223.626" y1="287.655" x2="220.417" y2="280.697" gradientUnits="userSpaceOnUse">
      <stop stop-color="#fff"/>
      <stop offset="1" stop-color="#A177B7"/>
    </linearGradient>
    <linearGradient id="f" x1="34.761" y1="426.017" x2="13.861" y2="381.206" gradientUnits="userSpaceOnUse">
      <stop/>
      <stop offset="1" stop-color="#fff"/>
    </linearGradient>
    <linearGradient id="g" x1="374.733" y1="577.76" x2="374.733" y2="444.406" gradientUnits="userSpaceOnUse">
      <stop stop-color="#6456C0"/>
      <stop offset="1" stop-color="#5F2C95"/>
    </linearGradient>
    <linearGradient id="j" x1="376.756" y1="484.023" x2="411.742" y2="484.023" gradientUnits="userSpaceOnUse">
      <stop stop-color="#9E8CEF"/>
      <stop offset="1" stop-color="#CAAFEE"/>
    </linearGradient>
    <linearGradient id="k" x1="458.64" y1="484.023" x2="423.579" y2="484.023" gradientUnits="userSpaceOnUse">
      <stop stop-color="#9E8CEF"/>
      <stop offset="1" stop-color="#CAAFEE"/>
    </linearGradient>
    <linearGradient id="l" x1="350.235" y1="577.76" x2="350.235" y2="444.406" gradientUnits="userSpaceOnUse">
      <stop stop-color="#CCF"/>
      <stop offset="1" stop-color="#755CBB"/>
    </linearGradient>
    <linearGradient id="m" x1="383.424" y1="511.083" x2="383.424" y2="474.68" gradientUnits="userSpaceOnUse">
      <stop stop-color="#CCF"/>
      <stop offset="1" stop-color="#755CBB"/>
    </linearGradient>
    <linearGradient id="n" x1="374.733" y1="497.703" x2="374.733" y2="462.047" gradientUnits="userSpaceOnUse">
      <stop stop-color="#CCF"/>
      <stop offset="1" stop-color="#755CBB"/>
    </linearGradient>
    <linearGradient id="o" x1="398.931" y1="243.553" x2="398.931" y2="190.331" gradientUnits="userSpaceOnUse">
      <stop stop-color="#D5CDF8"/>
      <stop offset="1" stop-color="#F3EDFB"/>
    </linearGradient>
    <linearGradient id="p" x1="397.358" y1="190.331" x2="452.272" y2="190.331" gradientUnits="userSpaceOnUse">
      <stop stop-color="#CCF"/>
      <stop offset="1" stop-color="#755CBB"/>
    </linearGradient>
    <linearGradient id="q" x1="267.378" y1="456.291" x2="267.378" y2="188.013" gradientUnits="userSpaceOnUse">
      <stop stop-color="#9E8CEF"/>
      <stop offset="1" stop-color="#CAAFEE"/>
    </linearGradient>
    <linearGradient id="r" x1="297.569" y1="224.641" x2="363.046" y2="224.641" gradientUnits="userSpaceOnUse">
      <stop stop-color="#CCF"/>
      <stop offset="1" stop-color="#755CBB"/>
    </linearGradient>
    <linearGradient id="s" x1="173.132" y1="364.199" x2="173.132" y2="238.769" gradientUnits="userSpaceOnUse">
      <stop stop-color="#9E8CEF"/>
      <stop offset="1" stop-color="#DAC7F3"/>
    </linearGradient>
    <linearGradient id="t" x1="511.756" y1="282.273" x2="596.112" y2="282.273" gradientUnits="userSpaceOnUse">
      <stop stop-color="#A999F1"/>
      <stop offset="1" stop-color="#DAC7F3"/>
    </linearGradient>
    <linearGradient id="u" x1="247.824" y1="221.651" x2="247.824" y2="188.611" gradientUnits="userSpaceOnUse">
      <stop offset=".016" stop-color="#FFC2A9"/>
      <stop offset="1" stop-color="#FF9595"/>
    </linearGradient>
    <linearGradient id="v" x1="228.121" y1="220.903" x2="228.121" y2="166.111" gradientUnits="userSpaceOnUse">
      <stop stop-color="#FFEADB"/>
      <stop offset=".994" stop-color="#C27CB6"/>
    </linearGradient>
    <linearGradient id="w" x1="215.985" y1="258.129" x2="215.985" y2="173.736" gradientUnits="userSpaceOnUse">
      <stop offset=".016" stop-color="#FFC2A9"/>
      <stop offset="1" stop-color="#FF9595"/>
    </linearGradient>
    <linearGradient id="x" x1="272.022" y1="231.816" x2="298.618" y2="231.816" gradientUnits="userSpaceOnUse">
      <stop offset=".016" stop-color="#D1A1D6"/>
      <stop offset=".994" stop-color="#BD89C4"/>
    </linearGradient>
    <linearGradient id="y" x1="525.091" y1="309.557" x2="525.091" y2="196.684" gradientUnits="userSpaceOnUse">
      <stop offset=".016" stop-color="#FFC2A9"/>
      <stop offset="1" stop-color="#FF9595"/>
    </linearGradient>
    <linearGradient id="z" x1="582.103" y1="273.378" x2="582.103" y2="217.315" gradientUnits="userSpaceOnUse">
      <stop stop-color="#FFEADB"/>
      <stop offset=".994" stop-color="#C27CB6"/>
    </linearGradient>
    <linearGradient id="A" x1="610.421" y1="254.018" x2="610.421" y2="228.902" gradientUnits="userSpaceOnUse">
      <stop stop-color="#FFB0B0"/>
      <stop offset=".984" stop-color="#FFC2A9"/>
    </linearGradient>
    <linearGradient id="B" x1="629.45" y1="257.904" x2="629.45" y2="244.15" gradientUnits="userSpaceOnUse">
      <stop stop-color="#FFB0B0"/>
      <stop offset=".984" stop-color="#FFC2A9"/>
    </linearGradient>
    <linearGradient id="C" x1="577.832" y1="272.107" x2="603.529" y2="272.107" gradientUnits="userSpaceOnUse">
      <stop offset=".016" stop-color="#D1A1D6"/>
      <stop offset=".994" stop-color="#BD89C4"/>
    </linearGradient>
    <linearGradient id="D" x1="467.855" y1="373.842" x2="467.855" y2="247.514" gradientUnits="userSpaceOnUse">
      <stop stop-color="#CCF"/>
      <stop offset="1" stop-color="#755CBB"/>
    </linearGradient>
    <linearGradient id="E" x1="263.257" y1="240.562" x2="475.046" y2="240.562" gradientUnits="userSpaceOnUse">
      <stop stop-color="#CCF"/>
      <stop offset="1" stop-color="#755CBB"/>
    </linearGradient>
    <linearGradient id="F" x1="449.949" y1="303.95" x2="490.404" y2="303.95" gradientUnits="userSpaceOnUse">
      <stop stop-color="#CCEDFF"/>
      <stop offset="1" stop-color="#755CBB"/>
    </linearGradient>
    <linearGradient id="G" x1="413.24" y1="371.001" x2="472.724" y2="371.001" gradientUnits="userSpaceOnUse">
      <stop stop-color="#CCEDFF"/>
      <stop offset="1" stop-color="#755CBB"/>
    </linearGradient>
    <linearGradient id="H" x1="416.012" y1="399.257" x2="479.541" y2="399.257" gradientUnits="userSpaceOnUse">
      <stop stop-color="#CCEDFF"/>
      <stop offset="1" stop-color="#755CBB"/>
    </linearGradient>
    <linearGradient id="I" x1="330.907" y1="344.315" x2="330.907" y2="273.153" gradientUnits="userSpaceOnUse">
      <stop stop-color="#CCEDFF"/>
      <stop offset="1" stop-color="#755CBB"/>
    </linearGradient>
    <linearGradient id="J" x1="327.161" y1="350.295" x2="327.161" y2="296.326" gradientUnits="userSpaceOnUse">
      <stop stop-color="#CCEDFF"/>
      <stop offset="1" stop-color="#755CBB"/>
    </linearGradient>
    <linearGradient id="K" x1="256.215" y1="281.301" x2="256.215" y2="240.562" gradientUnits="userSpaceOnUse">
      <stop stop-color="#CCEDFF"/>
      <stop offset="1" stop-color="#755CBB"/>
    </linearGradient>
    <linearGradient id="L" x1="314.65" y1="224.641" x2="331.132" y2="224.641" gradientUnits="userSpaceOnUse">
      <stop stop-color="#CCEDFF"/>
      <stop offset="1" stop-color="#755CBB"/>
    </linearGradient>
    <linearGradient id="M" x1="236.212" y1="344.315" x2="236.212" y2="268.743" gradientUnits="userSpaceOnUse">
      <stop stop-color="#CCF"/>
      <stop offset="1" stop-color="#755CBB"/>
    </linearGradient>
    <linearGradient id="N" x1="523.518" y1="328.094" x2="523.518" y2="288.626" gradientUnits="userSpaceOnUse">
      <stop stop-color="#CCF"/>
      <stop offset="1" stop-color="#755CBB"/>
    </linearGradient>
    <linearGradient id="O" x1="518.723" y1="326.301" x2="518.723" y2="296.102" gradientUnits="userSpaceOnUse">
      <stop stop-color="#CCF"/>
      <stop offset="1" stop-color="#755CBB"/>
    </linearGradient>
    <linearGradient id="P" x1="269.775" y1="283.918" x2="269.775" y2="272.705" gradientUnits="userSpaceOnUse">
      <stop stop-color="#CCEDFF"/>
      <stop offset="1" stop-color="#755CBB"/>
    </linearGradient>
    <linearGradient id="Q" x1="210.741" y1="318.153" x2="210.741" y2="256.858" gradientUnits="userSpaceOnUse">
      <stop stop-color="#CCF"/>
      <stop offset="1" stop-color="#755CBB"/>
    </linearGradient>
    <linearGradient id="R" x1="428.299" y1="275.022" x2="428.299" y2="228.901" gradientUnits="userSpaceOnUse">
      <stop stop-color="#CCEDFF"/>
      <stop offset="1" stop-color="#755CBB"/>
    </linearGradient>
    <linearGradient id="S" x1="358.776" y1="268.743" x2="358.776" y2="205.131" gradientUnits="userSpaceOnUse">
      <stop stop-color="#CCEDFF"/>
      <stop offset="1" stop-color="#755CBB"/>
    </linearGradient>
    <linearGradient id="T" x1="378.928" y1="267.996" x2="485.46" y2="267.996" gradientUnits="userSpaceOnUse">
      <stop stop-color="#8642A0"/>
      <stop offset="1" stop-color="#6456C0"/>
    </linearGradient>
    <linearGradient id="U" x1="388.143" y1="188.013" x2="457.441" y2="188.013" gradientUnits="userSpaceOnUse">
      <stop stop-color="#CCF"/>
      <stop offset="1" stop-color="#755CBB"/>
    </linearGradient>
    <linearGradient id="V" x1="501.417" y1="323.609" x2="501.417" y2="283.543" gradientUnits="userSpaceOnUse">
      <stop stop-color="#CCF"/>
      <stop offset="1" stop-color="#755CBB"/>
    </linearGradient>
    <linearGradient id="W" x1="338.399" y1="368.759" x2="338.399" y2="247.514" gradientUnits="userSpaceOnUse">
      <stop stop-color="#CCF"/>
      <stop offset="1" stop-color="#755CBB"/>
    </linearGradient>
    <linearGradient id="X" x1="367.841" y1="425.644" x2="367.841" y2="390.885" gradientUnits="userSpaceOnUse">
      <stop stop-color="#CCF"/>
      <stop offset="1" stop-color="#755CBB"/>
    </linearGradient>
    <linearGradient id="Y" x1="444.331" y1="416.15" x2="444.331" y2="399.257" gradientUnits="userSpaceOnUse">
      <stop stop-color="#CCF"/>
      <stop offset="1" stop-color="#755CBB"/>
    </linearGradient>
    <linearGradient id="Z" x1="361.323" y1="199.225" x2="361.323" y2="83.811" gradientUnits="userSpaceOnUse">
      <stop offset=".016" stop-color="#FFC2A9"/>
      <stop offset="1" stop-color="#FF9595"/>
    </linearGradient>
    <linearGradient id="aa" x1="373.46" y1="152.656" x2="373.46" y2="118.645" gradientUnits="userSpaceOnUse">
      <stop offset=".016" stop-color="#FFC2A9"/>
      <stop offset="1" stop-color="#FF9595"/>
    </linearGradient>
    <linearGradient id="ab" x1="459.389" y1="168.428" x2="462.149" y2="153.999" gradientUnits="userSpaceOnUse">
      <stop stop-color="#E1616A"/>
      <stop offset="1" stop-color="#FF8883"/>
    </linearGradient>
    <linearGradient id="ac" x1="410.918" y1="159.832" x2="410.918" y2="85.531" gradientUnits="userSpaceOnUse">
      <stop stop-color="#FFEADB"/>
      <stop offset=".994" stop-color="#C27CB6"/>
    </linearGradient>
    <linearGradient id="ad" x1="438.862" y1="129.409" x2="438.862" y2="114.684" gradientUnits="userSpaceOnUse">
      <stop stop-color="#CF6074"/>
      <stop offset="1" stop-color="#F37270"/>
    </linearGradient>
    <linearGradient id="ae" x1="466.356" y1="134.043" x2="466.356" y2="121.261" gradientUnits="userSpaceOnUse">
      <stop stop-color="#CF6074"/>
      <stop offset="1" stop-color="#FF817F"/>
    </linearGradient>
    <linearGradient id="af" x1="442.008" y1="141.518" x2="442.008" y2="112.665" gradientUnits="userSpaceOnUse">
      <stop stop-color="#FFEADB"/>
      <stop offset=".994" stop-color="#C27CB6"/>
    </linearGradient>
    <linearGradient id="ag" x1="333.005" y1="200.721" x2="333.005" y2="60.714" gradientUnits="userSpaceOnUse">
      <stop stop-color="#2E33A0"/>
      <stop offset="1" stop-color="#0665A5"/>
    </linearGradient>
    <linearGradient id="ah" x1="441.634" y1="112.516" x2="441.634" y2="80.224" gradientUnits="userSpaceOnUse">
      <stop stop-color="#FFEADB"/>
      <stop offset=".994" stop-color="#8860C7"/>
    </linearGradient>
    <linearGradient id="ai" x1="302.514" y1="200.721" x2="302.514" y2="60.714" gradientUnits="userSpaceOnUse">
      <stop stop-color="#CCC2DB"/>
      <stop offset=".994" stop-color="#8860C7"/>
    </linearGradient>
    <linearGradient id="aj" x1="449.051" y1="200.646" x2="449.051" y2="194.666" gradientUnits="userSpaceOnUse">
      <stop stop-color="#776D7E"/>
      <stop offset="1" stop-color="#9D68C2"/>
    </linearGradient>
    <linearGradient id="ak" x1="466.881" y1="70.731" x2="466.881" y2="66.32" gradientUnits="userSpaceOnUse">
      <stop stop-color="#1F77D1"/>
      <stop offset="1" stop-color="#0686C9"/>
    </linearGradient>
    <linearGradient id="al" x1="436.39" y1="85.456" x2="436.39" y2="72.225" gradientUnits="userSpaceOnUse">
      <stop stop-color="#1F77D1"/>
      <stop offset="1" stop-color="#0686C9"/>
    </linearGradient>
    <linearGradient id="am" x1="476.92" y1="92.184" x2="476.92" y2="80.224" gradientUnits="userSpaceOnUse">
      <stop stop-color="#1F77D1"/>
      <stop offset="1" stop-color="#0686C9"/>
    </linearGradient>
    <linearGradient id="an" x1="393.537" y1="163.943" x2="374.41" y2="140.43" gradientUnits="userSpaceOnUse">
      <stop stop-color="#FFEADB"/>
      <stop offset=".994" stop-color="#B060F4"/>
    </linearGradient>
    <linearGradient id="ao" x1="397.658" y1="154.899" x2="386.824" y2="141.57" gradientUnits="userSpaceOnUse">
      <stop stop-color="#FFEADB"/>
      <stop offset=".994" stop-color="#B060F4"/>
    </linearGradient>
    <linearGradient id="ap" x1="437.888" y1="84.335" x2="463.734" y2="84.335" gradientUnits="userSpaceOnUse">
      <stop stop-color="#1F77D1"/>
      <stop offset="1" stop-color="#0686C9"/>
    </linearGradient>
    <linearGradient id="aq" x1="474.372" y1="156.618" x2="482.239" y2="156.618" gradientUnits="userSpaceOnUse">
      <stop stop-color="#1F77D1"/>
      <stop offset="1" stop-color="#0686C9"/>
    </linearGradient>
    <linearGradient id="ar" x1="464.708" y1="155.273" x2="473.174" y2="155.273" gradientUnits="userSpaceOnUse">
      <stop stop-color="#1F77D1"/>
      <stop offset="1" stop-color="#0686C9"/>
    </linearGradient>
    <linearGradient id="as" x1="527.114" y1="169.027" x2="792.394" y2="169.027" gradientUnits="userSpaceOnUse">
      <stop stop-color="#9D68C2"/>
      <stop offset="1" stop-color="#AEC2FF"/>
    </linearGradient>
    <linearGradient id="at" x1="541.573" y1="278.46" x2="541.573" y2="198.627" gradientUnits="userSpaceOnUse">
      <stop stop-color="#CCEDFF"/>
      <stop offset="1" stop-color="#9D68C2"/>
    </linearGradient>
    <linearGradient id="au" x1="699.872" y1="239.591" x2="699.872" y2="204.383" gradientUnits="userSpaceOnUse">
      <stop stop-color="#CCEDFF"/>
      <stop offset="1" stop-color="#9D68C2"/>
    </linearGradient>
    <linearGradient id="av" x1="741.45" y1="239.591" x2="741.45" y2="204.383" gradientUnits="userSpaceOnUse">
      <stop stop-color="#CCEDFF"/>
      <stop offset="1" stop-color="#9D68C2"/>
    </linearGradient>
    <linearGradient id="aw" x1="657.619" y1="239.591" x2="657.619" y2="204.383" gradientUnits="userSpaceOnUse">
      <stop stop-color="#CCEDFF"/>
      <stop offset="1" stop-color="#9D68C2"/>
    </linearGradient>
    <linearGradient id="ax" x1="280.338" y1="153.18" x2="280.338" y2="116.328" gradientUnits="userSpaceOnUse">
      <stop stop-color="#D93DE3"/>
      <stop offset="1" stop-color="#FF6DBA"/>
    </linearGradient>
    <linearGradient id="ay" x1="114.623" y1="153.18" x2="114.623" y2="116.328" gradientUnits="userSpaceOnUse">
      <stop stop-color="#A242EA"/>
      <stop offset="1" stop-color="#FE117E"/>
    </linearGradient>
    <linearGradient id="az" x1="225.05" y1="534.554" x2="245.264" y2="373.008" gradientUnits="userSpaceOnUse">
      <stop stop-color="#067EFF"/>
      <stop offset="1" stop-color="#3E37A0"/>
    </linearGradient>
    <linearGradient id="aA" x1="748.867" y1="149.143" x2="748.867" y2="135.763" gradientUnits="userSpaceOnUse">
      <stop stop-color="#459FFF"/>
      <stop offset="1" stop-color="#A96DFF"/>
    </linearGradient>
    <linearGradient id="aB" x1="117.919" y1="305.744" x2="117.919" y2="289.075" gradientUnits="userSpaceOnUse">
      <stop stop-color="#459FFF"/>
      <stop offset="1" stop-color="#A96DFF"/>
    </linearGradient>
    <linearGradient id="aC" x1="768.495" y1="149.143" x2="768.495" y2="135.763" gradientUnits="userSpaceOnUse">
      <stop stop-color="#B31A8F"/>
      <stop offset="1" stop-color="#FE117E"/>
    </linearGradient>
    <linearGradient id="aD" x1="338.698" y1="193.171" x2="338.698" y2="183.678" gradientUnits="userSpaceOnUse">
      <stop stop-color="#B31A8F"/>
      <stop offset="1" stop-color="#FE117E"/>
    </linearGradient>
    <linearGradient id="aE" x1="655.821" y1="401.574" x2="655.821" y2="392.156" gradientUnits="userSpaceOnUse">
      <stop stop-color="#8642A0"/>
      <stop offset="1" stop-color="#6456C0"/>
    </linearGradient>
    <linearGradient id="aF" x1="164.068" y1="448.218" x2="164.068" y2="439.771" gradientUnits="userSpaceOnUse">
      <stop stop-color="#8642A0"/>
      <stop offset="1" stop-color="#6456C0"/>
    </linearGradient>
    <linearGradient id="aG" x1="178.901" y1="402.471" x2="178.901" y2="332.729" gradientUnits="userSpaceOnUse">
      <stop stop-color="#D906E3"/>
      <stop offset="1" stop-color="#FF6DF9"/>
    </linearGradient>
    <linearGradient id="aH" x1="655.371" y1="501.216" x2="655.371" y2="413.982" gradientUnits="userSpaceOnUse">
      <stop stop-color="#D906E3"/>
      <stop offset="1" stop-color="#FF6DF9"/>
    </linearGradient>
    <linearGradient id="aI" x1="534.156" y1="459.804" x2="526.399" y2="392.6" gradientUnits="userSpaceOnUse">
      <stop stop-color="#1852A0"/>
      <stop offset="1" stop-color="#067ED3"/>
    </linearGradient>
    <linearGradient id="aJ" x1="530.41" y1="452.105" x2="530.41" y2="385.054" gradientUnits="userSpaceOnUse">
      <stop stop-color="#1852A0"/>
      <stop offset="1" stop-color="#067ED3"/>
    </linearGradient>
    <linearGradient id="aK" x1="522.244" y1="456.216" x2="514.338" y2="388.489" gradientUnits="userSpaceOnUse">
      <stop stop-color="#188DC1"/>
      <stop offset="1" stop-color="#06BFE7"/>
    </linearGradient>
    <linearGradient id="aL" x1="594.689" y1="105.863" x2="611.773" y2="42.381" gradientUnits="userSpaceOnUse">
      <stop stop-color="#188DC1"/>
      <stop offset="1" stop-color="#06BFE7"/>
    </linearGradient>
    <linearGradient id="aM" x1="295.847" y1="26.105" x2="308.754" y2="-21.899" gradientUnits="userSpaceOnUse">
      <stop stop-color="#1852A0"/>
      <stop offset="1" stop-color="#067ED3"/>
    </linearGradient>
    <linearGradient id="aN" x1="171.875" y1="148.07" x2="160.237" y2="104.777" gradientUnits="userSpaceOnUse">
      <stop stop-color="#188DC1"/>
      <stop offset="1" stop-color="#06BFE7"/>
    </linearGradient>
    <linearGradient id="aO" x1="375.649" y1="93.727" x2="366.845" y2="60.976" gradientUnits="userSpaceOnUse">
      <stop stop-color="#1852A0"/>
      <stop offset="1" stop-color="#067ED3"/>
    </linearGradient>
    <radialGradient id="h" cx="0" cy="0" r="1" gradientUnits="userSpaceOnUse" gradientTransform="matrix(26.8202 0 0 26.7605 354.88 529.77)">
      <stop stop-color="#4B474B"/>
      <stop offset="1"/>
    </radialGradient>
    <radialGradient id="i" cx="0" cy="0" r="1" gradientUnits="userSpaceOnUse" gradientTransform="matrix(26.8202 0 0 26.7605 479.542 529.098)">
      <stop stop-color="#4B474B"/>
      <stop offset="1"/>
    </radialGradient>
  </defs>
</svg>
