<svg xmlns="http://www.w3.org/2000/svg" width="500" height="500" style="width:100%;height:100%;transform:translate3d(0,0,0);content-visibility:visible">
  <defs>
    <clipPath id="d">
      <path d="M0 0h500v500H0z"/>
    </clipPath>
    <clipPath id="h">
      <path d="M0 0h500v500H0z"/>
    </clipPath>
    <clipPath id="c">
      <path d="M0 0h500v500H0z"/>
    </clipPath>
    <clipPath id="e">
      <path d="M0 0h500v500H0z"/>
    </clipPath>
    <filter id="j" width="300%" height="300%" x="-100%" y="-100%">
      <feGaussianBlur result="filter_result_0" stdDeviation="52.5 52.5"/>
    </filter>
    <filter id="g" width="300%" height="300%" x="-100%" y="-100%">
      <feGaussianBlur result="filter_result_0" stdDeviation="52.5 52.5"/>
    </filter>
    <mask id="i" mask-type="alpha">
      <use xmlns:ns1="http://www.w3.org/1999/xlink" ns1:href="#a"/>
    </mask>
    <mask id="f" mask-type="alpha">
      <use xmlns:ns2="http://www.w3.org/1999/xlink" ns2:href="#b"/>
    </mask>
    <g style="display:block" id="a" clip-path="url(#c)">
      <path fill-opacity="0" stroke="#08A88A" stroke-linecap="round" stroke-linejoin="round" stroke-width="12" d="M208.958 182.645s-65.408-8.192-111.046 37.446c48.443 1.256 66.506 19.319 66.506 19.319m140.773 39.468s8.192 65.407-37.446 111.045c-1.256-48.443-19.32-66.505-19.32-66.505m52.337-95.18c-11.627 11.627-30.478 11.627-42.105 0-11.627-11.627-11.627-30.478 0-42.105 11.627-11.627 30.478-11.627 42.105 0 11.627 11.627 11.627 30.478 0 42.105z"/>
      <path fill-opacity="0" stroke="#121331" stroke-linecap="round" stroke-linejoin="round" stroke-width="12" d="M233.203 317.642c5.77 5.77 14.836 6.646 21.571 2.038 15.94-10.906 35.384-27.651 60.598-52.865 47.448-47.448 69.997-108.095 64.691-159.983-51.888-5.306-112.535 17.243-159.983 64.691-25.214 25.214-41.96 44.658-52.866 60.598-4.608 6.735-3.731 15.801 2.039 21.571l63.95 63.95zm-1.591 1.002-14.824 4.635a41.692 41.692 0 0 1-41.92-10.311s0 0 0 0a41.692 41.692 0 0 1-10.311-41.92l4.635-14.824"/>
      <path fill-opacity="0" stroke="#121331" stroke-linecap="round" stroke-linejoin="round" stroke-width="12" d="M300.338 120.593s1.792 19.835 24.371 42.414c22.579 22.579 41.596 23.553 41.596 23.553"/>
      <path fill="red" d="M159.21 369.409c-11.262 11.262-40.165 19.774-62.811 22.028 3.264-23.656 10.765-51.55 22.027-62.812s29.522-11.262 40.784 0 11.262 29.522 0 40.784z"/>
      <path fill-opacity="0" stroke="#08A88A" stroke-linecap="round" stroke-linejoin="round" stroke-width="12" d="M159.21 369.409c-11.262 11.262-40.165 19.774-62.811 22.028 3.264-23.656 10.765-51.55 22.027-62.812s29.522-11.262 40.784 0 11.262 29.522 0 40.784z"/>
    </g>
    <g id="b" style="display:block">
      <path fill-opacity="0" stroke="#121331" stroke-linecap="round" stroke-linejoin="round" stroke-width="12" d="M208.958 182.645s-65.408-8.192-111.046 37.446c48.443 1.256 66.506 19.319 66.506 19.319m140.773 39.468s8.192 65.407-37.446 111.045c-1.256-48.443-19.32-66.505-19.32-66.505m52.337-95.18c-11.627 11.627-30.478 11.627-42.105 0-11.627-11.627-11.627-30.478 0-42.105 11.627-11.627 30.478-11.627 42.105 0 11.627 11.627 11.627 30.478 0 42.105z"/>
      <path fill-opacity="0" stroke="#121331" stroke-linecap="round" stroke-linejoin="round" stroke-width="12" d="M233.203 317.642c5.77 5.77 14.836 6.646 21.571 2.038 15.94-10.906 35.384-27.651 60.598-52.865 47.448-47.448 69.997-108.095 64.691-159.983-51.888-5.306-112.535 17.243-159.983 64.691-25.214 25.214-41.96 44.658-52.866 60.598-4.608 6.735-3.731 15.801 2.039 21.571l63.95 63.95zm-1.591 1.002-14.824 4.635a41.692 41.692 0 0 1-41.92-10.311s0 0 0 0a41.692 41.692 0 0 1-10.311-41.92l4.635-14.824"/>
      <path fill-opacity="0" stroke="#121331" stroke-linecap="round" stroke-linejoin="round" stroke-width="12" d="M300.338 120.593s1.792 19.835 24.371 42.414c22.579 22.579 41.596 23.553 41.596 23.553M159.21 369.409c-11.262 11.262-40.165 19.774-62.811 22.028 3.264-23.656 10.765-51.55 22.027-62.812s29.522-11.262 40.784 0 11.262 29.522 0 40.784z"/>
      <path fill="red" d="M159.21 369.409c-11.262 11.262-40.165 19.774-62.811 22.028 3.264-23.656 10.765-51.55 22.027-62.812s29.522-11.262 40.784 0 11.262 29.522 0 40.784z"/>
    </g>
  </defs>
  <g clip-path="url(#d)">
    <g clip-path="url(#h)" mask="url(#i)" style="display:block">
      <g filter="url(#j)" transform="rotate(-94 262.075 8.435) scale(2.4)">
        <path fill="#4AE0EB" d="M0-250c137.975 0 250 112.025 250 250S137.975 250 0 250-250 137.975-250 0-137.975-250 0-250z" class="design"/>
        <path fill="#CA5EED" d="M113.242-295.384c97.478 0 176.5 79.022 176.5 176.5s-79.022 176.5-176.5 176.5c-43.948 0-74.396-34.057-105.29-60.631-37.631-32.369-71.21-62.338-71.21-115.869 0-97.478 79.022-176.5 176.5-176.5z" class="design"/>
      </g>
    </g>
  </g>
</svg>
